<svg width="466" height="144" viewBox="0 0 466 144" fill="none" xmlns="http://www.w3.org/2000/svg">
<path d="M303.5 72C303.5 111.495 271.93 143.5 233 143.5C194.07 143.5 162.5 111.495 162.5 72C162.5 32.505 194.07 0.5 233 0.5C271.93 0.5 303.5 32.505 303.5 72Z" stroke="white"/>
<path d="M465 72.5C465.276 72.5 465.5 72.2761 465.5 72C465.5 71.7239 465.276 71.5 465 71.5V72.5ZM304 72.5H465V71.5H304V72.5Z" fill="white"/>
<path d="M162 72.5L162.5 72.5L162.5 71.5L162 71.5L162 72.5ZM-4.37114e-08 72.5L162 72.5L162 71.5L4.37114e-08 71.5L-4.37114e-08 72.5Z" fill="white"/>
<path d="M250.682 54C250.682 63.3888 243.213 71 234 71C224.787 71 217.318 63.3888 217.318 54C217.318 44.6112 224.787 37 234 37C243.213 37 250.682 44.6112 250.682 54Z" fill="white"/>
<path d="M206.215 93.6124C208.972 81.7391 220.536 75.25 232.509 75.25H235.491C247.464 75.25 259.028 81.7391 261.785 93.6124C262.319 95.9098 262.743 98.3139 262.981 100.757C263.209 103.093 261.327 105 259.024 105H208.976C206.673 105 204.791 103.093 205.019 100.757C205.257 98.3139 205.681 95.9098 206.215 93.6124Z" fill="white"/>
</svg>
