<svg width="216" height="40" viewBox="0 0 216 40" fill="none" xmlns="http://www.w3.org/2000/svg">
<path d="M62.8413 3.60973V6.31557H58.4025V20.3237H55.0615V6.31557H50.6227V3.60973H62.8413Z" fill="#3A416E"/>
<path d="M62.8413 3.60973V6.31557H58.4025V20.3237H55.0615V6.31557H50.6227V3.60973H62.8413Z" fill="#3A416E"/>
<path d="M62.8413 3.60973V6.31557H58.4025V20.3237H55.0615V6.31557H50.6227V3.60973H62.8413Z" fill="#3A416E"/>
<path d="M76.3759 13.4035C76.3759 13.8824 76.3441 14.3134 76.2804 14.6965H66.6154C66.6949 15.6543 67.029 16.4046 67.6177 16.9474C68.2063 17.4902 68.9302 17.7615 69.7893 17.7615C71.0303 17.7615 71.9132 17.2268 72.4383 16.1572H76.0418C75.6599 17.4343 74.9281 18.4879 73.8463 19.318C72.7644 20.1322 71.436 20.5392 69.8609 20.5392C68.5881 20.5392 67.4427 20.2599 66.4244 19.7011C65.4221 19.1264 64.6346 18.3203 64.0619 17.2826C63.505 16.245 63.2266 15.0477 63.2266 13.6908C63.2266 12.3179 63.505 11.1127 64.0619 10.075C64.6187 9.03738 65.3983 8.2392 66.4006 7.68047C67.4029 7.12174 68.5563 6.84238 69.8609 6.84238C71.1178 6.84238 72.2394 7.11376 73.2258 7.65652C74.2281 8.19929 74.9997 8.97353 75.5406 9.97924C76.0975 10.969 76.3759 12.1104 76.3759 13.4035ZM72.9155 12.4456C72.8996 11.5836 72.5894 10.8972 71.9848 10.3863C71.3803 9.85952 70.6405 9.59611 69.7655 9.59611C68.9382 9.59611 68.2381 9.85153 67.6654 10.3624C67.1086 10.8572 66.7665 11.5517 66.6392 12.4456H72.9155Z" fill="#3A416E"/>
<path d="M76.3759 13.4035C76.3759 13.8824 76.3441 14.3134 76.2804 14.6965H66.6154C66.6949 15.6543 67.029 16.4046 67.6177 16.9474C68.2063 17.4902 68.9302 17.7615 69.7893 17.7615C71.0303 17.7615 71.9132 17.2268 72.4383 16.1572H76.0418C75.6599 17.4343 74.9281 18.4879 73.8463 19.318C72.7644 20.1322 71.436 20.5392 69.8609 20.5392C68.5881 20.5392 67.4427 20.2599 66.4244 19.7011C65.4221 19.1264 64.6346 18.3203 64.0619 17.2826C63.505 16.245 63.2266 15.0477 63.2266 13.6908C63.2266 12.3179 63.505 11.1127 64.0619 10.075C64.6187 9.03738 65.3983 8.2392 66.4006 7.68047C67.4029 7.12174 68.5563 6.84238 69.8609 6.84238C71.1178 6.84238 72.2394 7.11376 73.2258 7.65652C74.2281 8.19929 74.9997 8.97353 75.5406 9.97924C76.0975 10.969 76.3759 12.1104 76.3759 13.4035ZM72.9155 12.4456C72.8996 11.5836 72.5894 10.8972 71.9848 10.3863C71.3803 9.85952 70.6405 9.59611 69.7655 9.59611C68.9382 9.59611 68.2381 9.85153 67.6654 10.3624C67.1086 10.8572 66.7665 11.5517 66.6392 12.4456H72.9155Z" fill="#3A416E"/>
<path d="M76.3759 13.4035C76.3759 13.8824 76.3441 14.3134 76.2804 14.6965H66.6154C66.6949 15.6543 67.029 16.4046 67.6177 16.9474C68.2063 17.4902 68.9302 17.7615 69.7893 17.7615C71.0303 17.7615 71.9132 17.2268 72.4383 16.1572H76.0418C75.6599 17.4343 74.9281 18.4879 73.8463 19.318C72.7644 20.1322 71.436 20.5392 69.8609 20.5392C68.5881 20.5392 67.4427 20.2599 66.4244 19.7011C65.4221 19.1264 64.6346 18.3203 64.0619 17.2826C63.505 16.245 63.2266 15.0477 63.2266 13.6908C63.2266 12.3179 63.505 11.1127 64.0619 10.075C64.6187 9.03738 65.3983 8.2392 66.4006 7.68047C67.4029 7.12174 68.5563 6.84238 69.8609 6.84238C71.1178 6.84238 72.2394 7.11376 73.2258 7.65652C74.2281 8.19929 74.9997 8.97353 75.5406 9.97924C76.0975 10.969 76.3759 12.1104 76.3759 13.4035ZM72.9155 12.4456C72.8996 11.5836 72.5894 10.8972 71.9848 10.3863C71.3803 9.85952 70.6405 9.59611 69.7655 9.59611C68.9382 9.59611 68.2381 9.85153 67.6654 10.3624C67.1086 10.8572 66.7665 11.5517 66.6392 12.4456H72.9155Z" fill="#3A416E"/>
<path d="M94.04 6.86632C95.6627 6.86632 96.9673 7.36918 97.9537 8.37489C98.956 9.36464 99.4572 10.7535 99.4572 12.5414V20.3237H96.1162V12.9964C96.1162 11.9587 95.8536 11.1685 95.3286 10.6258C94.8036 10.067 94.0877 9.78768 93.1808 9.78768C92.274 9.78768 91.5501 10.067 91.0092 10.6258C90.4842 11.1685 90.2217 11.9587 90.2217 12.9964V20.3237H86.8807V12.9964C86.8807 11.9587 86.6181 11.1685 86.0931 10.6258C85.5681 10.067 84.8522 9.78768 83.9453 9.78768C83.0226 9.78768 82.2907 10.067 81.7498 10.6258C81.2248 11.1685 80.9623 11.9587 80.9623 12.9964V20.3237H77.6213V7.05789H80.9623V8.66224C81.3919 8.10351 81.9407 7.66451 82.6089 7.34523C83.293 7.02596 84.0408 6.86632 84.8522 6.86632C85.8863 6.86632 86.8091 7.08981 87.6204 7.5368C88.4318 7.96782 89.0603 8.5904 89.5057 9.40455C89.9353 8.63829 90.5558 8.02369 91.3671 7.56074C92.1944 7.09779 93.0854 6.86632 94.04 6.86632Z" fill="#3A416E"/>
<path d="M94.04 6.86632C95.6627 6.86632 96.9673 7.36918 97.9537 8.37489C98.956 9.36464 99.4572 10.7535 99.4572 12.5414V20.3237H96.1162V12.9964C96.1162 11.9587 95.8536 11.1685 95.3286 10.6258C94.8036 10.067 94.0877 9.78768 93.1808 9.78768C92.274 9.78768 91.5501 10.067 91.0092 10.6258C90.4842 11.1685 90.2217 11.9587 90.2217 12.9964V20.3237H86.8807V12.9964C86.8807 11.9587 86.6181 11.1685 86.0931 10.6258C85.5681 10.067 84.8522 9.78768 83.9453 9.78768C83.0226 9.78768 82.2907 10.067 81.7498 10.6258C81.2248 11.1685 80.9623 11.9587 80.9623 12.9964V20.3237H77.6213V7.05789H80.9623V8.66224C81.3919 8.10351 81.9407 7.66451 82.6089 7.34523C83.293 7.02596 84.0408 6.86632 84.8522 6.86632C85.8863 6.86632 86.8091 7.08981 87.6204 7.5368C88.4318 7.96782 89.0603 8.5904 89.5057 9.40455C89.9353 8.63829 90.5558 8.02369 91.3671 7.56074C92.1944 7.09779 93.0854 6.86632 94.04 6.86632Z" fill="#3A416E"/>
<path d="M94.04 6.86632C95.6627 6.86632 96.9673 7.36918 97.9537 8.37489C98.956 9.36464 99.4572 10.7535 99.4572 12.5414V20.3237H96.1162V12.9964C96.1162 11.9587 95.8536 11.1685 95.3286 10.6258C94.8036 10.067 94.0877 9.78768 93.1808 9.78768C92.274 9.78768 91.5501 10.067 91.0092 10.6258C90.4842 11.1685 90.2217 11.9587 90.2217 12.9964V20.3237H86.8807V12.9964C86.8807 11.9587 86.6181 11.1685 86.0931 10.6258C85.5681 10.067 84.8522 9.78768 83.9453 9.78768C83.0226 9.78768 82.2907 10.067 81.7498 10.6258C81.2248 11.1685 80.9623 11.9587 80.9623 12.9964V20.3237H77.6213V7.05789H80.9623V8.66224C81.3919 8.10351 81.9407 7.66451 82.6089 7.34523C83.293 7.02596 84.0408 6.86632 84.8522 6.86632C85.8863 6.86632 86.8091 7.08981 87.6204 7.5368C88.4318 7.96782 89.0603 8.5904 89.5057 9.40455C89.9353 8.63829 90.5558 8.02369 91.3671 7.56074C92.1944 7.09779 93.0854 6.86632 94.04 6.86632Z" fill="#3A416E"/>
<path d="M100.575 13.6429C100.575 12.302 100.838 11.1127 101.363 10.075C101.904 9.03738 102.628 8.2392 103.534 7.68047C104.457 7.12174 105.483 6.84238 106.613 6.84238C107.599 6.84238 108.458 7.04192 109.19 7.44101C109.938 7.84011 110.535 8.34296 110.98 8.94958V7.05789H114.345V20.3237H110.98V18.3841C110.551 19.0067 109.954 19.5255 109.19 19.9406C108.443 20.3397 107.575 20.5392 106.589 20.5392C105.475 20.5392 104.457 20.2519 103.534 19.6772C102.628 19.1025 101.904 18.2963 101.363 17.2587C100.838 16.2051 100.575 14.9998 100.575 13.6429ZM110.98 13.6908C110.98 12.8767 110.821 12.1822 110.503 11.6075C110.185 11.0169 109.755 10.5699 109.214 10.2666C108.673 9.94732 108.093 9.78768 107.472 9.78768C106.852 9.78768 106.279 9.93933 105.754 10.2426C105.229 10.546 104.799 10.9929 104.465 11.5836C104.147 12.1583 103.988 12.8447 103.988 13.6429C103.988 14.4411 104.147 15.1435 104.465 15.7501C104.799 16.3408 105.229 16.7957 105.754 17.115C106.295 17.4343 106.867 17.5939 107.472 17.5939C108.093 17.5939 108.673 17.4423 109.214 17.139C109.755 16.8197 110.185 16.3727 110.503 15.798C110.821 15.2074 110.98 14.505 110.98 13.6908Z" fill="#3A416E"/>
<path d="M100.575 13.6429C100.575 12.302 100.838 11.1127 101.363 10.075C101.904 9.03738 102.628 8.2392 103.534 7.68047C104.457 7.12174 105.483 6.84238 106.613 6.84238C107.599 6.84238 108.458 7.04192 109.19 7.44101C109.938 7.84011 110.535 8.34296 110.98 8.94958V7.05789H114.345V20.3237H110.98V18.3841C110.551 19.0067 109.954 19.5255 109.19 19.9406C108.443 20.3397 107.575 20.5392 106.589 20.5392C105.475 20.5392 104.457 20.2519 103.534 19.6772C102.628 19.1025 101.904 18.2963 101.363 17.2587C100.838 16.2051 100.575 14.9998 100.575 13.6429ZM110.98 13.6908C110.98 12.8767 110.821 12.1822 110.503 11.6075C110.185 11.0169 109.755 10.5699 109.214 10.2666C108.673 9.94732 108.093 9.78768 107.472 9.78768C106.852 9.78768 106.279 9.93933 105.754 10.2426C105.229 10.546 104.799 10.9929 104.465 11.5836C104.147 12.1583 103.988 12.8447 103.988 13.6429C103.988 14.4411 104.147 15.1435 104.465 15.7501C104.799 16.3408 105.229 16.7957 105.754 17.115C106.295 17.4343 106.867 17.5939 107.472 17.5939C108.093 17.5939 108.673 17.4423 109.214 17.139C109.755 16.8197 110.185 16.3727 110.503 15.798C110.821 15.2074 110.98 14.505 110.98 13.6908Z" fill="#3A416E"/>
<path d="M100.575 13.6429C100.575 12.302 100.838 11.1127 101.363 10.075C101.904 9.03738 102.628 8.2392 103.534 7.68047C104.457 7.12174 105.483 6.84238 106.613 6.84238C107.599 6.84238 108.458 7.04192 109.19 7.44101C109.938 7.84011 110.535 8.34296 110.98 8.94958V7.05789H114.345V20.3237H110.98V18.3841C110.551 19.0067 109.954 19.5255 109.19 19.9406C108.443 20.3397 107.575 20.5392 106.589 20.5392C105.475 20.5392 104.457 20.2519 103.534 19.6772C102.628 19.1025 101.904 18.2963 101.363 17.2587C100.838 16.2051 100.575 14.9998 100.575 13.6429ZM110.98 13.6908C110.98 12.8767 110.821 12.1822 110.503 11.6075C110.185 11.0169 109.755 10.5699 109.214 10.2666C108.673 9.94732 108.093 9.78768 107.472 9.78768C106.852 9.78768 106.279 9.93933 105.754 10.2426C105.229 10.546 104.799 10.9929 104.465 11.5836C104.147 12.1583 103.988 12.8447 103.988 13.6429C103.988 14.4411 104.147 15.1435 104.465 15.7501C104.799 16.3408 105.229 16.7957 105.754 17.115C106.295 17.4343 106.867 17.5939 107.472 17.5939C108.093 17.5939 108.673 17.4423 109.214 17.139C109.755 16.8197 110.185 16.3727 110.503 15.798C110.821 15.2074 110.98 14.505 110.98 13.6908Z" fill="#3A416E"/>
<path d="M123.741 6.86632C125.316 6.86632 126.589 7.36918 127.559 8.37489C128.53 9.36464 129.015 10.7535 129.015 12.5414V20.3237H125.674V12.9964C125.674 11.9428 125.412 11.1366 124.887 10.5779C124.362 10.0032 123.646 9.71584 122.739 9.71584C121.816 9.71584 121.084 10.0032 120.543 10.5779C120.018 11.1366 119.756 11.9428 119.756 12.9964V20.3237H116.415V7.05789H119.756V8.71013C120.201 8.13544 120.766 7.68845 121.45 7.36918C122.15 7.03394 122.914 6.86632 123.741 6.86632Z" fill="#3A416E"/>
<path d="M123.741 6.86632C125.316 6.86632 126.589 7.36918 127.559 8.37489C128.53 9.36464 129.015 10.7535 129.015 12.5414V20.3237H125.674V12.9964C125.674 11.9428 125.412 11.1366 124.887 10.5779C124.362 10.0032 123.646 9.71584 122.739 9.71584C121.816 9.71584 121.084 10.0032 120.543 10.5779C120.018 11.1366 119.756 11.9428 119.756 12.9964V20.3237H116.415V7.05789H119.756V8.71013C120.201 8.13544 120.766 7.68845 121.45 7.36918C122.15 7.03394 122.914 6.86632 123.741 6.86632Z" fill="#3A416E"/>
<path d="M123.741 6.86632C125.316 6.86632 126.589 7.36918 127.559 8.37489C128.53 9.36464 129.015 10.7535 129.015 12.5414V20.3237H125.674V12.9964C125.674 11.9428 125.412 11.1366 124.887 10.5779C124.362 10.0032 123.646 9.71584 122.739 9.71584C121.816 9.71584 121.084 10.0032 120.543 10.5779C120.018 11.1366 119.756 11.9428 119.756 12.9964V20.3237H116.415V7.05789H119.756V8.71013C120.201 8.13544 120.766 7.68845 121.45 7.36918C122.15 7.03394 122.914 6.86632 123.741 6.86632Z" fill="#3A416E"/>
<path d="M140.402 20.3237L134.34 12.8767V20.3237H130.999V3.60973H134.34V11.1047L140.402 3.60973H144.435L137.562 11.8949L144.626 20.3237H140.402Z" fill="#3A416E"/>
<path d="M140.402 20.3237L134.34 12.8767V20.3237H130.999V3.60973H134.34V11.1047L140.402 3.60973H144.435L137.562 11.8949L144.626 20.3237H140.402Z" fill="#3A416E"/>
<path d="M140.402 20.3237L134.34 12.8767V20.3237H130.999V3.60973H134.34V11.1047L140.402 3.60973H144.435L137.562 11.8949L144.626 20.3237H140.402Z" fill="#3A416E"/>
<path d="M145.487 13.6429C145.487 12.302 145.749 11.1127 146.274 10.075C146.815 9.03738 147.539 8.2392 148.446 7.68047C149.369 7.12174 150.395 6.84238 151.524 6.84238C152.511 6.84238 153.37 7.04192 154.102 7.44101C154.85 7.84011 155.446 8.34296 155.892 8.94958V7.05789H159.257V20.3237H155.892V18.3841C155.462 19.0067 154.865 19.5255 154.102 19.9406C153.354 20.3397 152.487 20.5392 151.501 20.5392C150.387 20.5392 149.369 20.2519 148.446 19.6772C147.539 19.1025 146.815 18.2963 146.274 17.2587C145.749 16.2051 145.487 14.9998 145.487 13.6429ZM155.892 13.6908C155.892 12.8767 155.733 12.1822 155.414 11.6075C155.096 11.0169 154.667 10.5699 154.126 10.2666C153.585 9.94732 153.004 9.78768 152.384 9.78768C151.763 9.78768 151.19 9.93933 150.665 10.2426C150.14 10.546 149.711 10.9929 149.377 11.5836C149.058 12.1583 148.899 12.8447 148.899 13.6429C148.899 14.4411 149.058 15.1435 149.377 15.7501C149.711 16.3408 150.14 16.7957 150.665 17.115C151.206 17.4343 151.779 17.5939 152.384 17.5939C153.004 17.5939 153.585 17.4423 154.126 17.139C154.667 16.8197 155.096 16.3727 155.414 15.798C155.733 15.2074 155.892 14.505 155.892 13.6908Z" fill="#3A416E"/>
<path d="M145.487 13.6429C145.487 12.302 145.749 11.1127 146.274 10.075C146.815 9.03738 147.539 8.2392 148.446 7.68047C149.369 7.12174 150.395 6.84238 151.524 6.84238C152.511 6.84238 153.37 7.04192 154.102 7.44101C154.85 7.84011 155.446 8.34296 155.892 8.94958V7.05789H159.257V20.3237H155.892V18.3841C155.462 19.0067 154.865 19.5255 154.102 19.9406C153.354 20.3397 152.487 20.5392 151.501 20.5392C150.387 20.5392 149.369 20.2519 148.446 19.6772C147.539 19.1025 146.815 18.2963 146.274 17.2587C145.749 16.2051 145.487 14.9998 145.487 13.6429ZM155.892 13.6908C155.892 12.8767 155.733 12.1822 155.414 11.6075C155.096 11.0169 154.667 10.5699 154.126 10.2666C153.585 9.94732 153.004 9.78768 152.384 9.78768C151.763 9.78768 151.19 9.93933 150.665 10.2426C150.14 10.546 149.711 10.9929 149.377 11.5836C149.058 12.1583 148.899 12.8447 148.899 13.6429C148.899 14.4411 149.058 15.1435 149.377 15.7501C149.711 16.3408 150.14 16.7957 150.665 17.115C151.206 17.4343 151.779 17.5939 152.384 17.5939C153.004 17.5939 153.585 17.4423 154.126 17.139C154.667 16.8197 155.096 16.3727 155.414 15.798C155.733 15.2074 155.892 14.505 155.892 13.6908Z" fill="#3A416E"/>
<path d="M145.487 13.6429C145.487 12.302 145.749 11.1127 146.274 10.075C146.815 9.03738 147.539 8.2392 148.446 7.68047C149.369 7.12174 150.395 6.84238 151.524 6.84238C152.511 6.84238 153.37 7.04192 154.102 7.44101C154.85 7.84011 155.446 8.34296 155.892 8.94958V7.05789H159.257V20.3237H155.892V18.3841C155.462 19.0067 154.865 19.5255 154.102 19.9406C153.354 20.3397 152.487 20.5392 151.501 20.5392C150.387 20.5392 149.369 20.2519 148.446 19.6772C147.539 19.1025 146.815 18.2963 146.274 17.2587C145.749 16.2051 145.487 14.9998 145.487 13.6429ZM155.892 13.6908C155.892 12.8767 155.733 12.1822 155.414 11.6075C155.096 11.0169 154.667 10.5699 154.126 10.2666C153.585 9.94732 153.004 9.78768 152.384 9.78768C151.763 9.78768 151.19 9.93933 150.665 10.2426C150.14 10.546 149.711 10.9929 149.377 11.5836C149.058 12.1583 148.899 12.8447 148.899 13.6429C148.899 14.4411 149.058 15.1435 149.377 15.7501C149.711 16.3408 150.14 16.7957 150.665 17.115C151.206 17.4343 151.779 17.5939 152.384 17.5939C153.004 17.5939 153.585 17.4423 154.126 17.139C154.667 16.8197 155.096 16.3727 155.414 15.798C155.733 15.2074 155.892 14.505 155.892 13.6908Z" fill="#3A416E"/>
<path d="M169.369 6.86632C170.944 6.86632 172.216 7.36918 173.187 8.37489C174.157 9.36464 174.643 10.7535 174.643 12.5414V20.3237H171.302V12.9964C171.302 11.9428 171.039 11.1366 170.514 10.5779C169.989 10.0032 169.273 9.71584 168.366 9.71584C167.444 9.71584 166.712 10.0032 166.171 10.5779C165.646 11.1366 165.383 11.9428 165.383 12.9964V20.3237H162.042V7.05789H165.383V8.71013C165.829 8.13544 166.394 7.68845 167.078 7.36918C167.778 7.03394 168.541 6.86632 169.369 6.86632Z" fill="#3A416E"/>
<path d="M169.369 6.86632C170.944 6.86632 172.216 7.36918 173.187 8.37489C174.157 9.36464 174.643 10.7535 174.643 12.5414V20.3237H171.302V12.9964C171.302 11.9428 171.039 11.1366 170.514 10.5779C169.989 10.0032 169.273 9.71584 168.366 9.71584C167.444 9.71584 166.712 10.0032 166.171 10.5779C165.646 11.1366 165.383 11.9428 165.383 12.9964V20.3237H162.042V7.05789H165.383V8.71013C165.829 8.13544 166.394 7.68845 167.078 7.36918C167.778 7.03394 168.541 6.86632 169.369 6.86632Z" fill="#3A416E"/>
<path d="M169.369 6.86632C170.944 6.86632 172.216 7.36918 173.187 8.37489C174.157 9.36464 174.643 10.7535 174.643 12.5414V20.3237H171.302V12.9964C171.302 11.9428 171.039 11.1366 170.514 10.5779C169.989 10.0032 169.273 9.71584 168.366 9.71584C167.444 9.71584 166.712 10.0032 166.171 10.5779C165.646 11.1366 165.383 11.9428 165.383 12.9964V20.3237H162.042V7.05789H165.383V8.71013C165.829 8.13544 166.394 7.68845 167.078 7.36918C167.778 7.03394 168.541 6.86632 169.369 6.86632Z" fill="#3A416E"/>
<path d="M181.232 9.81163V16.229C181.232 16.676 181.336 17.0033 181.543 17.2108C181.765 17.4024 182.131 17.4981 182.64 17.4981H184.192V20.3237H182.092C179.276 20.3237 177.868 18.9508 177.868 16.2051V9.81163H176.292V7.05789H177.868V3.77734H181.232V7.05789H184.192V9.81163H181.232Z" fill="#3A416E"/>
<path d="M181.232 9.81163V16.229C181.232 16.676 181.336 17.0033 181.543 17.2108C181.765 17.4024 182.131 17.4981 182.64 17.4981H184.192V20.3237H182.092C179.276 20.3237 177.868 18.9508 177.868 16.2051V9.81163H176.292V7.05789H177.868V3.77734H181.232V7.05789H184.192V9.81163H181.232Z" fill="#3A416E"/>
<path d="M181.232 9.81163V16.229C181.232 16.676 181.336 17.0033 181.543 17.2108C181.765 17.4024 182.131 17.4981 182.64 17.4981H184.192V20.3237H182.092C179.276 20.3237 177.868 18.9508 177.868 16.2051V9.81163H176.292V7.05789H177.868V3.77734H181.232V7.05789H184.192V9.81163H181.232Z" fill="#3A416E"/>
<path d="M191.988 20.5392C190.715 20.5392 189.57 20.2599 188.551 19.7011C187.533 19.1264 186.73 18.3203 186.141 17.2826C185.568 16.245 185.282 15.0477 185.282 13.6908C185.282 12.3339 185.576 11.1366 186.165 10.099C186.77 9.06133 187.589 8.26315 188.623 7.70442C189.657 7.12972 190.811 6.84238 192.083 6.84238C193.356 6.84238 194.51 7.12972 195.544 7.70442C196.578 8.26315 197.389 9.06133 197.978 10.099C198.582 11.1366 198.885 12.3339 198.885 13.6908C198.885 15.0477 198.574 16.245 197.954 17.2826C197.349 18.3203 196.522 19.1264 195.472 19.7011C194.438 20.2599 193.277 20.5392 191.988 20.5392ZM191.988 17.6179C192.593 17.6179 193.157 17.4742 193.682 17.1869C194.223 16.8835 194.653 16.4366 194.971 15.8459C195.289 15.2552 195.448 14.5369 195.448 13.6908C195.448 12.4297 195.114 11.4639 194.446 10.7934C193.794 10.107 192.99 9.76373 192.036 9.76373C191.081 9.76373 190.278 10.107 189.625 10.7934C188.989 11.4639 188.671 12.4297 188.671 13.6908C188.671 14.9519 188.981 15.9257 189.601 16.6122C190.238 17.2826 191.033 17.6179 191.988 17.6179Z" fill="#3A416E"/>
<path d="M191.988 20.5392C190.715 20.5392 189.57 20.2599 188.551 19.7011C187.533 19.1264 186.73 18.3203 186.141 17.2826C185.568 16.245 185.282 15.0477 185.282 13.6908C185.282 12.3339 185.576 11.1366 186.165 10.099C186.77 9.06133 187.589 8.26315 188.623 7.70442C189.657 7.12972 190.811 6.84238 192.083 6.84238C193.356 6.84238 194.51 7.12972 195.544 7.70442C196.578 8.26315 197.389 9.06133 197.978 10.099C198.582 11.1366 198.885 12.3339 198.885 13.6908C198.885 15.0477 198.574 16.245 197.954 17.2826C197.349 18.3203 196.522 19.1264 195.472 19.7011C194.438 20.2599 193.277 20.5392 191.988 20.5392ZM191.988 17.6179C192.593 17.6179 193.157 17.4742 193.682 17.1869C194.223 16.8835 194.653 16.4366 194.971 15.8459C195.289 15.2552 195.448 14.5369 195.448 13.6908C195.448 12.4297 195.114 11.4639 194.446 10.7934C193.794 10.107 192.99 9.76373 192.036 9.76373C191.081 9.76373 190.278 10.107 189.625 10.7934C188.989 11.4639 188.671 12.4297 188.671 13.6908C188.671 14.9519 188.981 15.9257 189.601 16.6122C190.238 17.2826 191.033 17.6179 191.988 17.6179Z" fill="#3A416E"/>
<path d="M191.988 20.5392C190.715 20.5392 189.57 20.2599 188.551 19.7011C187.533 19.1264 186.73 18.3203 186.141 17.2826C185.568 16.245 185.282 15.0477 185.282 13.6908C185.282 12.3339 185.576 11.1366 186.165 10.099C186.77 9.06133 187.589 8.26315 188.623 7.70442C189.657 7.12972 190.811 6.84238 192.083 6.84238C193.356 6.84238 194.51 7.12972 195.544 7.70442C196.578 8.26315 197.389 9.06133 197.978 10.099C198.582 11.1366 198.885 12.3339 198.885 13.6908C198.885 15.0477 198.574 16.245 197.954 17.2826C197.349 18.3203 196.522 19.1264 195.472 19.7011C194.438 20.2599 193.277 20.5392 191.988 20.5392ZM191.988 17.6179C192.593 17.6179 193.157 17.4742 193.682 17.1869C194.223 16.8835 194.653 16.4366 194.971 15.8459C195.289 15.2552 195.448 14.5369 195.448 13.6908C195.448 12.4297 195.114 11.4639 194.446 10.7934C193.794 10.107 192.99 9.76373 192.036 9.76373C191.081 9.76373 190.278 10.107 189.625 10.7934C188.989 11.4639 188.671 12.4297 188.671 13.6908C188.671 14.9519 188.981 15.9257 189.601 16.6122C190.238 17.2826 191.033 17.6179 191.988 17.6179Z" fill="#3A416E"/>
<path d="M204.199 9.1172C204.629 8.4148 205.186 7.86405 205.87 7.46496C206.57 7.06587 207.365 6.86632 208.256 6.86632V10.3863H207.373C206.323 10.3863 205.528 10.6338 204.987 11.1286C204.462 11.6235 204.199 12.4855 204.199 13.7148V20.3237H200.858V7.05789H204.199V9.1172Z" fill="#3A416E"/>
<path d="M204.199 9.1172C204.629 8.4148 205.186 7.86405 205.87 7.46496C206.57 7.06587 207.365 6.86632 208.256 6.86632V10.3863H207.373C206.323 10.3863 205.528 10.6338 204.987 11.1286C204.462 11.6235 204.199 12.4855 204.199 13.7148V20.3237H200.858V7.05789H204.199V9.1172Z" fill="#3A416E"/>
<path d="M204.199 9.1172C204.629 8.4148 205.186 7.86405 205.87 7.46496C206.57 7.06587 207.365 6.86632 208.256 6.86632V10.3863H207.373C206.323 10.3863 205.528 10.6338 204.987 11.1286C204.462 11.6235 204.199 12.4855 204.199 13.7148V20.3237H200.858V7.05789H204.199V9.1172Z" fill="#3A416E"/>
<path d="M54.9638 37.6236C54.3891 37.6236 53.8862 37.5219 53.4551 37.3183C53.0241 37.1148 52.686 36.8392 52.4409 36.4915C52.2042 36.1438 52.069 35.7579 52.0352 35.3338H52.631C52.6987 35.8003 52.9142 36.2158 53.2776 36.5805C53.6495 36.9452 54.2116 37.1275 54.9638 37.1275C55.4033 37.1275 55.7836 37.0469 56.1048 36.8858C56.4344 36.7247 56.688 36.5042 56.8655 36.2243C57.043 35.9445 57.1317 35.6349 57.1317 35.2957C57.1317 34.8632 57.0261 34.5197 56.8148 34.2653C56.6119 34.0109 56.3541 33.82 56.0414 33.6928C55.7371 33.5656 55.323 33.4299 54.799 33.2858C54.2242 33.1331 53.7594 32.9804 53.4044 32.8278C53.0579 32.6751 52.7621 32.4419 52.5169 32.1281C52.2803 31.8059 52.162 31.3691 52.162 30.8179C52.162 30.3938 52.2718 30.008 52.4916 29.6602C52.7198 29.3041 53.041 29.0242 53.4551 28.8207C53.8693 28.6171 54.3468 28.5153 54.8877 28.5153C55.6737 28.5153 56.3076 28.7104 56.7894 29.1005C57.2712 29.4906 57.5585 29.9698 57.6515 30.538H57.043C56.9923 30.309 56.8782 30.0758 56.7007 29.8383C56.5316 29.6009 56.2865 29.4058 55.9653 29.2532C55.6526 29.092 55.2765 29.0115 54.837 29.0115C54.2454 29.0115 53.7467 29.1768 53.341 29.5076C52.9353 29.8299 52.7325 30.2624 52.7325 30.8051C52.7325 31.2377 52.8381 31.5854 53.0494 31.8483C53.2607 32.1027 53.5185 32.2977 53.8228 32.4334C54.1355 32.5606 54.5539 32.6921 55.0779 32.8278C55.6611 32.9889 56.1217 33.1458 56.4598 33.2985C56.8063 33.4426 57.0979 33.6759 57.3346 33.9981C57.5797 34.3119 57.7022 34.7402 57.7022 35.283C57.7022 35.6816 57.5966 36.0589 57.3853 36.4151C57.174 36.7713 56.8613 37.0639 56.4471 37.2929C56.0414 37.5134 55.547 37.6236 54.9638 37.6236Z" fill="#3A416E"/>
<path d="M54.9638 37.6236C54.3891 37.6236 53.8862 37.5219 53.4551 37.3183C53.0241 37.1148 52.686 36.8392 52.4409 36.4915C52.2042 36.1438 52.069 35.7579 52.0352 35.3338H52.631C52.6987 35.8003 52.9142 36.2158 53.2776 36.5805C53.6495 36.9452 54.2116 37.1275 54.9638 37.1275C55.4033 37.1275 55.7836 37.0469 56.1048 36.8858C56.4344 36.7247 56.688 36.5042 56.8655 36.2243C57.043 35.9445 57.1317 35.6349 57.1317 35.2957C57.1317 34.8632 57.0261 34.5197 56.8148 34.2653C56.6119 34.0109 56.3541 33.82 56.0414 33.6928C55.7371 33.5656 55.323 33.4299 54.799 33.2858C54.2242 33.1331 53.7594 32.9804 53.4044 32.8278C53.0579 32.6751 52.7621 32.4419 52.5169 32.1281C52.2803 31.8059 52.162 31.3691 52.162 30.8179C52.162 30.3938 52.2718 30.008 52.4916 29.6602C52.7198 29.3041 53.041 29.0242 53.4551 28.8207C53.8693 28.6171 54.3468 28.5153 54.8877 28.5153C55.6737 28.5153 56.3076 28.7104 56.7894 29.1005C57.2712 29.4906 57.5585 29.9698 57.6515 30.538H57.043C56.9923 30.309 56.8782 30.0758 56.7007 29.8383C56.5316 29.6009 56.2865 29.4058 55.9653 29.2532C55.6526 29.092 55.2765 29.0115 54.837 29.0115C54.2454 29.0115 53.7467 29.1768 53.341 29.5076C52.9353 29.8299 52.7325 30.2624 52.7325 30.8051C52.7325 31.2377 52.8381 31.5854 53.0494 31.8483C53.2607 32.1027 53.5185 32.2977 53.8228 32.4334C54.1355 32.5606 54.5539 32.6921 55.0779 32.8278C55.6611 32.9889 56.1217 33.1458 56.4598 33.2985C56.8063 33.4426 57.0979 33.6759 57.3346 33.9981C57.5797 34.3119 57.7022 34.7402 57.7022 35.283C57.7022 35.6816 57.5966 36.0589 57.3853 36.4151C57.174 36.7713 56.8613 37.0639 56.4471 37.2929C56.0414 37.5134 55.547 37.6236 54.9638 37.6236Z" fill="#3A416E"/>
<path d="M54.9638 37.6236C54.3891 37.6236 53.8862 37.5219 53.4551 37.3183C53.0241 37.1148 52.686 36.8392 52.4409 36.4915C52.2042 36.1438 52.069 35.7579 52.0352 35.3338H52.631C52.6987 35.8003 52.9142 36.2158 53.2776 36.5805C53.6495 36.9452 54.2116 37.1275 54.9638 37.1275C55.4033 37.1275 55.7836 37.0469 56.1048 36.8858C56.4344 36.7247 56.688 36.5042 56.8655 36.2243C57.043 35.9445 57.1317 35.6349 57.1317 35.2957C57.1317 34.8632 57.0261 34.5197 56.8148 34.2653C56.6119 34.0109 56.3541 33.82 56.0414 33.6928C55.7371 33.5656 55.323 33.4299 54.799 33.2858C54.2242 33.1331 53.7594 32.9804 53.4044 32.8278C53.0579 32.6751 52.7621 32.4419 52.5169 32.1281C52.2803 31.8059 52.162 31.3691 52.162 30.8179C52.162 30.3938 52.2718 30.008 52.4916 29.6602C52.7198 29.3041 53.041 29.0242 53.4551 28.8207C53.8693 28.6171 54.3468 28.5153 54.8877 28.5153C55.6737 28.5153 56.3076 28.7104 56.7894 29.1005C57.2712 29.4906 57.5585 29.9698 57.6515 30.538H57.043C56.9923 30.309 56.8782 30.0758 56.7007 29.8383C56.5316 29.6009 56.2865 29.4058 55.9653 29.2532C55.6526 29.092 55.2765 29.0115 54.837 29.0115C54.2454 29.0115 53.7467 29.1768 53.341 29.5076C52.9353 29.8299 52.7325 30.2624 52.7325 30.8051C52.7325 31.2377 52.8381 31.5854 53.0494 31.8483C53.2607 32.1027 53.5185 32.2977 53.8228 32.4334C54.1355 32.5606 54.5539 32.6921 55.0779 32.8278C55.6611 32.9889 56.1217 33.1458 56.4598 33.2985C56.8063 33.4426 57.0979 33.6759 57.3346 33.9981C57.5797 34.3119 57.7022 34.7402 57.7022 35.283C57.7022 35.6816 57.5966 36.0589 57.3853 36.4151C57.174 36.7713 56.8613 37.0639 56.4471 37.2929C56.0414 37.5134 55.547 37.6236 54.9638 37.6236Z" fill="#3A416E"/>
<path d="M63.074 37.6364C62.4316 37.6364 61.8527 37.4922 61.3371 37.2038C60.8215 36.9155 60.4159 36.5042 60.12 35.9699C59.8327 35.4271 59.689 34.7953 59.689 34.0745C59.689 33.3621 59.8369 32.7387 60.1327 32.2045C60.4285 31.6617 60.8342 31.2504 61.3498 30.9705C61.8738 30.6822 62.457 30.538 63.0993 30.538C63.7417 30.538 64.3207 30.6822 64.8362 30.9705C65.3518 31.2504 65.7533 31.6575 66.0406 32.1917C66.3364 32.726 66.4844 33.3536 66.4844 34.0745C66.4844 34.7953 66.3364 35.4271 66.0406 35.9699C65.7448 36.5042 65.3349 36.9155 64.8109 37.2038C64.2953 37.4922 63.7163 37.6364 63.074 37.6364ZM63.074 37.1275C63.5727 37.1275 64.0375 37.0173 64.4686 36.7968C64.9081 36.5678 65.2588 36.2243 65.5208 35.7664C65.7828 35.3084 65.9139 34.7444 65.9139 34.0745C65.9139 33.413 65.7828 32.8532 65.5208 32.3953C65.2588 31.9373 64.9123 31.5981 64.4812 31.3776C64.0502 31.1486 63.5853 31.0341 63.0867 31.0341C62.588 31.0341 62.1231 31.1486 61.6921 31.3776C61.2695 31.5981 60.9272 31.9373 60.6652 32.3953C60.4032 32.8532 60.2722 33.413 60.2722 34.0745C60.2722 34.7444 60.399 35.3084 60.6525 35.7664C60.9145 36.2243 61.2568 36.5678 61.6794 36.7968C62.1105 37.0173 62.5753 37.1275 63.074 37.1275Z" fill="#3A416E"/>
<path d="M63.074 37.6364C62.4316 37.6364 61.8527 37.4922 61.3371 37.2038C60.8215 36.9155 60.4159 36.5042 60.12 35.9699C59.8327 35.4271 59.689 34.7953 59.689 34.0745C59.689 33.3621 59.8369 32.7387 60.1327 32.2045C60.4285 31.6617 60.8342 31.2504 61.3498 30.9705C61.8738 30.6822 62.457 30.538 63.0993 30.538C63.7417 30.538 64.3207 30.6822 64.8362 30.9705C65.3518 31.2504 65.7533 31.6575 66.0406 32.1917C66.3364 32.726 66.4844 33.3536 66.4844 34.0745C66.4844 34.7953 66.3364 35.4271 66.0406 35.9699C65.7448 36.5042 65.3349 36.9155 64.8109 37.2038C64.2953 37.4922 63.7163 37.6364 63.074 37.6364ZM63.074 37.1275C63.5727 37.1275 64.0375 37.0173 64.4686 36.7968C64.9081 36.5678 65.2588 36.2243 65.5208 35.7664C65.7828 35.3084 65.9139 34.7444 65.9139 34.0745C65.9139 33.413 65.7828 32.8532 65.5208 32.3953C65.2588 31.9373 64.9123 31.5981 64.4812 31.3776C64.0502 31.1486 63.5853 31.0341 63.0867 31.0341C62.588 31.0341 62.1231 31.1486 61.6921 31.3776C61.2695 31.5981 60.9272 31.9373 60.6652 32.3953C60.4032 32.8532 60.2722 33.413 60.2722 34.0745C60.2722 34.7444 60.399 35.3084 60.6525 35.7664C60.9145 36.2243 61.2568 36.5678 61.6794 36.7968C62.1105 37.0173 62.5753 37.1275 63.074 37.1275Z" fill="#3A416E"/>
<path d="M63.074 37.6364C62.4316 37.6364 61.8527 37.4922 61.3371 37.2038C60.8215 36.9155 60.4159 36.5042 60.12 35.9699C59.8327 35.4271 59.689 34.7953 59.689 34.0745C59.689 33.3621 59.8369 32.7387 60.1327 32.2045C60.4285 31.6617 60.8342 31.2504 61.3498 30.9705C61.8738 30.6822 62.457 30.538 63.0993 30.538C63.7417 30.538 64.3207 30.6822 64.8362 30.9705C65.3518 31.2504 65.7533 31.6575 66.0406 32.1917C66.3364 32.726 66.4844 33.3536 66.4844 34.0745C66.4844 34.7953 66.3364 35.4271 66.0406 35.9699C65.7448 36.5042 65.3349 36.9155 64.8109 37.2038C64.2953 37.4922 63.7163 37.6364 63.074 37.6364ZM63.074 37.1275C63.5727 37.1275 64.0375 37.0173 64.4686 36.7968C64.9081 36.5678 65.2588 36.2243 65.5208 35.7664C65.7828 35.3084 65.9139 34.7444 65.9139 34.0745C65.9139 33.413 65.7828 32.8532 65.5208 32.3953C65.2588 31.9373 64.9123 31.5981 64.4812 31.3776C64.0502 31.1486 63.5853 31.0341 63.0867 31.0341C62.588 31.0341 62.1231 31.1486 61.6921 31.3776C61.2695 31.5981 60.9272 31.9373 60.6652 32.3953C60.4032 32.8532 60.2722 33.413 60.2722 34.0745C60.2722 34.7444 60.399 35.3084 60.6525 35.7664C60.9145 36.2243 61.2568 36.5678 61.6794 36.7968C62.1105 37.0173 62.5753 37.1275 63.074 37.1275Z" fill="#3A416E"/>
<path d="M69.4197 28.121V37.5346H68.8492V28.121H69.4197Z" fill="#3A416E"/>
<path d="M69.4197 28.121V37.5346H68.8492V28.121H69.4197Z" fill="#3A416E"/>
<path d="M69.4197 28.121V37.5346H68.8492V28.121H69.4197Z" fill="#3A416E"/>
<path d="M77.9641 30.627V37.5346H77.3936V36.0335C77.1992 36.5593 76.8738 36.9621 76.4174 37.242C75.9695 37.5134 75.4539 37.6491 74.8707 37.6491C74.0509 37.6491 73.3789 37.3989 72.8549 36.8985C72.3393 36.3897 72.0816 35.6392 72.0816 34.6469V30.627H72.6394V34.6087C72.6394 35.4314 72.8465 36.0632 73.2606 36.5042C73.6748 36.9367 74.2368 37.153 74.9468 37.153C75.6905 37.153 76.2822 36.9155 76.7217 36.4406C77.1696 35.9657 77.3936 35.2618 77.3936 34.3289V30.627H77.9641Z" fill="#3A416E"/>
<path d="M77.9641 30.627V37.5346H77.3936V36.0335C77.1992 36.5593 76.8738 36.9621 76.4174 37.242C75.9695 37.5134 75.4539 37.6491 74.8707 37.6491C74.0509 37.6491 73.3789 37.3989 72.8549 36.8985C72.3393 36.3897 72.0816 35.6392 72.0816 34.6469V30.627H72.6394V34.6087C72.6394 35.4314 72.8465 36.0632 73.2606 36.5042C73.6748 36.9367 74.2368 37.153 74.9468 37.153C75.6905 37.153 76.2822 36.9155 76.7217 36.4406C77.1696 35.9657 77.3936 35.2618 77.3936 34.3289V30.627H77.9641Z" fill="#3A416E"/>
<path d="M77.9641 30.627V37.5346H77.3936V36.0335C77.1992 36.5593 76.8738 36.9621 76.4174 37.242C75.9695 37.5134 75.4539 37.6491 74.8707 37.6491C74.0509 37.6491 73.3789 37.3989 72.8549 36.8985C72.3393 36.3897 72.0816 35.6392 72.0816 34.6469V30.627H72.6394V34.6087C72.6394 35.4314 72.8465 36.0632 73.2606 36.5042C73.6748 36.9367 74.2368 37.153 74.9468 37.153C75.6905 37.153 76.2822 36.9155 76.7217 36.4406C77.1696 35.9657 77.3936 35.2618 77.3936 34.3289V30.627H77.9641Z" fill="#3A416E"/>
<path d="M82.9725 37.6364C82.2034 37.6364 81.5737 37.4667 81.0835 37.1275C80.6017 36.7883 80.3313 36.3049 80.2721 35.6773H80.8553C80.8975 36.1268 81.1004 36.483 81.4638 36.7459C81.8357 37.0088 82.3386 37.1402 82.9725 37.1402C83.4965 37.1402 83.9107 37.0088 84.2149 36.7459C84.5277 36.4745 84.684 36.1438 84.684 35.7536C84.684 35.4823 84.5995 35.2618 84.4305 35.0921C84.2699 34.914 84.067 34.7784 83.8219 34.6851C83.5768 34.5918 83.243 34.49 82.8204 34.3798C82.3132 34.2441 81.9033 34.1126 81.5906 33.9854C81.2779 33.8497 81.0116 33.6504 80.7919 33.3875C80.5721 33.1246 80.4623 32.7727 80.4623 32.3317C80.4623 32.0094 80.5595 31.7126 80.7539 31.4412C80.9483 31.1613 81.2187 30.9408 81.5652 30.7797C81.9118 30.6186 82.3048 30.538 82.7443 30.538C83.4627 30.538 84.0417 30.7203 84.4812 31.085C84.9291 31.4412 85.17 31.9373 85.2038 32.5734H84.6333C84.6079 32.1154 84.4305 31.7423 84.1008 31.4539C83.7712 31.1656 83.3148 31.0214 82.7316 31.0214C82.2414 31.0214 81.8357 31.1486 81.5145 31.403C81.1934 31.6575 81.0328 31.967 81.0328 32.3317C81.0328 32.6539 81.1215 32.9168 81.299 33.1204C81.485 33.3154 81.7089 33.4681 81.9709 33.5783C82.2414 33.6801 82.5964 33.7904 83.0359 33.9091C83.5176 34.0363 83.9022 34.1635 84.1896 34.2907C84.4854 34.4094 84.7347 34.5875 84.9376 34.825C85.1404 35.054 85.2418 35.3635 85.2418 35.7536C85.2418 36.1098 85.1446 36.4321 84.9503 36.7204C84.7559 37.0088 84.4854 37.2335 84.1389 37.3947C83.7923 37.5558 83.4035 37.6364 82.9725 37.6364Z" fill="#3A416E"/>
<path d="M82.9725 37.6364C82.2034 37.6364 81.5737 37.4667 81.0835 37.1275C80.6017 36.7883 80.3313 36.3049 80.2721 35.6773H80.8553C80.8975 36.1268 81.1004 36.483 81.4638 36.7459C81.8357 37.0088 82.3386 37.1402 82.9725 37.1402C83.4965 37.1402 83.9107 37.0088 84.2149 36.7459C84.5277 36.4745 84.684 36.1438 84.684 35.7536C84.684 35.4823 84.5995 35.2618 84.4305 35.0921C84.2699 34.914 84.067 34.7784 83.8219 34.6851C83.5768 34.5918 83.243 34.49 82.8204 34.3798C82.3132 34.2441 81.9033 34.1126 81.5906 33.9854C81.2779 33.8497 81.0116 33.6504 80.7919 33.3875C80.5721 33.1246 80.4623 32.7727 80.4623 32.3317C80.4623 32.0094 80.5595 31.7126 80.7539 31.4412C80.9483 31.1613 81.2187 30.9408 81.5652 30.7797C81.9118 30.6186 82.3048 30.538 82.7443 30.538C83.4627 30.538 84.0417 30.7203 84.4812 31.085C84.9291 31.4412 85.17 31.9373 85.2038 32.5734H84.6333C84.6079 32.1154 84.4305 31.7423 84.1008 31.4539C83.7712 31.1656 83.3148 31.0214 82.7316 31.0214C82.2414 31.0214 81.8357 31.1486 81.5145 31.403C81.1934 31.6575 81.0328 31.967 81.0328 32.3317C81.0328 32.6539 81.1215 32.9168 81.299 33.1204C81.485 33.3154 81.7089 33.4681 81.9709 33.5783C82.2414 33.6801 82.5964 33.7904 83.0359 33.9091C83.5176 34.0363 83.9022 34.1635 84.1896 34.2907C84.4854 34.4094 84.7347 34.5875 84.9376 34.825C85.1404 35.054 85.2418 35.3635 85.2418 35.7536C85.2418 36.1098 85.1446 36.4321 84.9503 36.7204C84.7559 37.0088 84.4854 37.2335 84.1389 37.3947C83.7923 37.5558 83.4035 37.6364 82.9725 37.6364Z" fill="#3A416E"/>
<path d="M82.9725 37.6364C82.2034 37.6364 81.5737 37.4667 81.0835 37.1275C80.6017 36.7883 80.3313 36.3049 80.2721 35.6773H80.8553C80.8975 36.1268 81.1004 36.483 81.4638 36.7459C81.8357 37.0088 82.3386 37.1402 82.9725 37.1402C83.4965 37.1402 83.9107 37.0088 84.2149 36.7459C84.5277 36.4745 84.684 36.1438 84.684 35.7536C84.684 35.4823 84.5995 35.2618 84.4305 35.0921C84.2699 34.914 84.067 34.7784 83.8219 34.6851C83.5768 34.5918 83.243 34.49 82.8204 34.3798C82.3132 34.2441 81.9033 34.1126 81.5906 33.9854C81.2779 33.8497 81.0116 33.6504 80.7919 33.3875C80.5721 33.1246 80.4623 32.7727 80.4623 32.3317C80.4623 32.0094 80.5595 31.7126 80.7539 31.4412C80.9483 31.1613 81.2187 30.9408 81.5652 30.7797C81.9118 30.6186 82.3048 30.538 82.7443 30.538C83.4627 30.538 84.0417 30.7203 84.4812 31.085C84.9291 31.4412 85.17 31.9373 85.2038 32.5734H84.6333C84.6079 32.1154 84.4305 31.7423 84.1008 31.4539C83.7712 31.1656 83.3148 31.0214 82.7316 31.0214C82.2414 31.0214 81.8357 31.1486 81.5145 31.403C81.1934 31.6575 81.0328 31.967 81.0328 32.3317C81.0328 32.6539 81.1215 32.9168 81.299 33.1204C81.485 33.3154 81.7089 33.4681 81.9709 33.5783C82.2414 33.6801 82.5964 33.7904 83.0359 33.9091C83.5176 34.0363 83.9022 34.1635 84.1896 34.2907C84.4854 34.4094 84.7347 34.5875 84.9376 34.825C85.1404 35.054 85.2418 35.3635 85.2418 35.7536C85.2418 36.1098 85.1446 36.4321 84.9503 36.7204C84.7559 37.0088 84.4854 37.2335 84.1389 37.3947C83.7923 37.5558 83.4035 37.6364 82.9725 37.6364Z" fill="#3A416E"/>
<path d="M87.9051 29.0878C87.7699 29.0878 87.6558 29.0454 87.5628 28.9606C87.4698 28.8673 87.4233 28.7443 87.4233 28.5917C87.4233 28.4475 87.4698 28.3288 87.5628 28.2355C87.6558 28.1422 87.7699 28.0956 87.9051 28.0956C88.0403 28.0956 88.1544 28.1422 88.2474 28.2355C88.3404 28.3288 88.3869 28.4475 88.3869 28.5917C88.3869 28.7443 88.3404 28.8673 88.2474 28.9606C88.1544 29.0454 88.0403 29.0878 87.9051 29.0878ZM88.184 30.627V37.5346H87.6135V30.627H88.184Z" fill="#3A416E"/>
<path d="M87.9051 29.0878C87.7699 29.0878 87.6558 29.0454 87.5628 28.9606C87.4698 28.8673 87.4233 28.7443 87.4233 28.5917C87.4233 28.4475 87.4698 28.3288 87.5628 28.2355C87.6558 28.1422 87.7699 28.0956 87.9051 28.0956C88.0403 28.0956 88.1544 28.1422 88.2474 28.2355C88.3404 28.3288 88.3869 28.4475 88.3869 28.5917C88.3869 28.7443 88.3404 28.8673 88.2474 28.9606C88.1544 29.0454 88.0403 29.0878 87.9051 29.0878ZM88.184 30.627V37.5346H87.6135V30.627H88.184Z" fill="#3A416E"/>
<path d="M87.9051 29.0878C87.7699 29.0878 87.6558 29.0454 87.5628 28.9606C87.4698 28.8673 87.4233 28.7443 87.4233 28.5917C87.4233 28.4475 87.4698 28.3288 87.5628 28.2355C87.6558 28.1422 87.7699 28.0956 87.9051 28.0956C88.0403 28.0956 88.1544 28.1422 88.2474 28.2355C88.3404 28.3288 88.3869 28.4475 88.3869 28.5917C88.3869 28.7443 88.3404 28.8673 88.2474 28.9606C88.1544 29.0454 88.0403 29.0878 87.9051 29.0878ZM88.184 30.627V37.5346H87.6135V30.627H88.184Z" fill="#3A416E"/>
<path d="M94.7662 34.0745C94.7662 33.3621 94.9057 32.7387 95.1846 32.2045C95.472 31.6702 95.865 31.2589 96.3637 30.9705C96.8708 30.6822 97.4455 30.538 98.0878 30.538C98.8147 30.538 99.4317 30.7161 99.9388 31.0723C100.446 31.4285 100.801 31.8822 101.004 32.4334V30.627H101.574V37.5346H101.004V35.7155C100.801 36.2752 100.442 36.7374 99.9262 37.1021C99.419 37.4583 98.8063 37.6364 98.0878 37.6364C97.4455 37.6364 96.8708 37.4922 96.3637 37.2038C95.865 36.907 95.472 36.4915 95.1846 35.9572C94.9057 35.4144 94.7662 34.7868 94.7662 34.0745ZM101.004 34.0745C101.004 33.4723 100.877 32.9423 100.623 32.4843C100.378 32.0179 100.04 31.6617 99.6092 31.4158C99.1782 31.1613 98.6964 31.0341 98.1639 31.0341C97.6061 31.0341 97.1159 31.1571 96.6933 31.403C96.2707 31.6405 95.9411 31.9882 95.7044 32.4462C95.4677 32.9041 95.3494 33.4469 95.3494 34.0745C95.3494 34.702 95.4677 35.2448 95.7044 35.7028C95.9411 36.1607 96.2707 36.5127 96.6933 36.7586C97.1243 37.0045 97.6145 37.1275 98.1639 37.1275C98.6964 37.1275 99.1782 37.0045 99.6092 36.7586C100.049 36.5042 100.391 36.148 100.636 35.69C100.881 35.2236 101.004 34.6851 101.004 34.0745Z" fill="#3A416E"/>
<path d="M94.7662 34.0745C94.7662 33.3621 94.9057 32.7387 95.1846 32.2045C95.472 31.6702 95.865 31.2589 96.3637 30.9705C96.8708 30.6822 97.4455 30.538 98.0878 30.538C98.8147 30.538 99.4317 30.7161 99.9388 31.0723C100.446 31.4285 100.801 31.8822 101.004 32.4334V30.627H101.574V37.5346H101.004V35.7155C100.801 36.2752 100.442 36.7374 99.9262 37.1021C99.419 37.4583 98.8063 37.6364 98.0878 37.6364C97.4455 37.6364 96.8708 37.4922 96.3637 37.2038C95.865 36.907 95.472 36.4915 95.1846 35.9572C94.9057 35.4144 94.7662 34.7868 94.7662 34.0745ZM101.004 34.0745C101.004 33.4723 100.877 32.9423 100.623 32.4843C100.378 32.0179 100.04 31.6617 99.6092 31.4158C99.1782 31.1613 98.6964 31.0341 98.1639 31.0341C97.6061 31.0341 97.1159 31.1571 96.6933 31.403C96.2707 31.6405 95.9411 31.9882 95.7044 32.4462C95.4677 32.9041 95.3494 33.4469 95.3494 34.0745C95.3494 34.702 95.4677 35.2448 95.7044 35.7028C95.9411 36.1607 96.2707 36.5127 96.6933 36.7586C97.1243 37.0045 97.6145 37.1275 98.1639 37.1275C98.6964 37.1275 99.1782 37.0045 99.6092 36.7586C100.049 36.5042 100.391 36.148 100.636 35.69C100.881 35.2236 101.004 34.6851 101.004 34.0745Z" fill="#3A416E"/>
<path d="M94.7662 34.0745C94.7662 33.3621 94.9057 32.7387 95.1846 32.2045C95.472 31.6702 95.865 31.2589 96.3637 30.9705C96.8708 30.6822 97.4455 30.538 98.0878 30.538C98.8147 30.538 99.4317 30.7161 99.9388 31.0723C100.446 31.4285 100.801 31.8822 101.004 32.4334V30.627H101.574V37.5346H101.004V35.7155C100.801 36.2752 100.442 36.7374 99.9262 37.1021C99.419 37.4583 98.8063 37.6364 98.0878 37.6364C97.4455 37.6364 96.8708 37.4922 96.3637 37.2038C95.865 36.907 95.472 36.4915 95.1846 35.9572C94.9057 35.4144 94.7662 34.7868 94.7662 34.0745ZM101.004 34.0745C101.004 33.4723 100.877 32.9423 100.623 32.4843C100.378 32.0179 100.04 31.6617 99.6092 31.4158C99.1782 31.1613 98.6964 31.0341 98.1639 31.0341C97.6061 31.0341 97.1159 31.1571 96.6933 31.403C96.2707 31.6405 95.9411 31.9882 95.7044 32.4462C95.4677 32.9041 95.3494 33.4469 95.3494 34.0745C95.3494 34.702 95.4677 35.2448 95.7044 35.7028C95.9411 36.1607 96.2707 36.5127 96.6933 36.7586C97.1243 37.0045 97.6145 37.1275 98.1639 37.1275C98.6964 37.1275 99.1782 37.0045 99.6092 36.7586C100.049 36.5042 100.391 36.148 100.636 35.69C100.881 35.2236 101.004 34.6851 101.004 34.0745Z" fill="#3A416E"/>
<path d="M103.93 34.0745C103.93 33.3621 104.07 32.7387 104.349 32.2045C104.636 31.6702 105.029 31.2589 105.528 30.9705C106.035 30.6822 106.61 30.538 107.252 30.538C107.954 30.538 108.562 30.7161 109.078 31.0723C109.593 31.42 109.957 31.8737 110.168 32.4334V28.121H110.739V37.5346H110.168V35.7028C109.965 36.271 109.61 36.7374 109.103 37.1021C108.596 37.4583 107.979 37.6364 107.252 37.6364C106.61 37.6364 106.035 37.4922 105.528 37.2038C105.029 36.907 104.636 36.4915 104.349 35.9572C104.07 35.4144 103.93 34.7868 103.93 34.0745ZM110.168 34.0745C110.168 33.4723 110.041 32.9423 109.788 32.4843C109.543 32.0179 109.205 31.6617 108.773 31.4158C108.342 31.1613 107.861 31.0341 107.328 31.0341C106.77 31.0341 106.28 31.1571 105.858 31.403C105.435 31.6405 105.105 31.9882 104.869 32.4462C104.632 32.9041 104.514 33.4469 104.514 34.0745C104.514 34.702 104.632 35.2448 104.869 35.7028C105.105 36.1607 105.435 36.5127 105.858 36.7586C106.289 37.0045 106.779 37.1275 107.328 37.1275C107.861 37.1275 108.342 37.0045 108.773 36.7586C109.213 36.5042 109.555 36.148 109.8 35.69C110.045 35.2236 110.168 34.6851 110.168 34.0745Z" fill="#3A416E"/>
<path d="M103.93 34.0745C103.93 33.3621 104.07 32.7387 104.349 32.2045C104.636 31.6702 105.029 31.2589 105.528 30.9705C106.035 30.6822 106.61 30.538 107.252 30.538C107.954 30.538 108.562 30.7161 109.078 31.0723C109.593 31.42 109.957 31.8737 110.168 32.4334V28.121H110.739V37.5346H110.168V35.7028C109.965 36.271 109.61 36.7374 109.103 37.1021C108.596 37.4583 107.979 37.6364 107.252 37.6364C106.61 37.6364 106.035 37.4922 105.528 37.2038C105.029 36.907 104.636 36.4915 104.349 35.9572C104.07 35.4144 103.93 34.7868 103.93 34.0745ZM110.168 34.0745C110.168 33.4723 110.041 32.9423 109.788 32.4843C109.543 32.0179 109.205 31.6617 108.773 31.4158C108.342 31.1613 107.861 31.0341 107.328 31.0341C106.77 31.0341 106.28 31.1571 105.858 31.403C105.435 31.6405 105.105 31.9882 104.869 32.4462C104.632 32.9041 104.514 33.4469 104.514 34.0745C104.514 34.702 104.632 35.2448 104.869 35.7028C105.105 36.1607 105.435 36.5127 105.858 36.7586C106.289 37.0045 106.779 37.1275 107.328 37.1275C107.861 37.1275 108.342 37.0045 108.773 36.7586C109.213 36.5042 109.555 36.148 109.8 35.69C110.045 35.2236 110.168 34.6851 110.168 34.0745Z" fill="#3A416E"/>
<path d="M103.93 34.0745C103.93 33.3621 104.07 32.7387 104.349 32.2045C104.636 31.6702 105.029 31.2589 105.528 30.9705C106.035 30.6822 106.61 30.538 107.252 30.538C107.954 30.538 108.562 30.7161 109.078 31.0723C109.593 31.42 109.957 31.8737 110.168 32.4334V28.121H110.739V37.5346H110.168V35.7028C109.965 36.271 109.61 36.7374 109.103 37.1021C108.596 37.4583 107.979 37.6364 107.252 37.6364C106.61 37.6364 106.035 37.4922 105.528 37.2038C105.029 36.907 104.636 36.4915 104.349 35.9572C104.07 35.4144 103.93 34.7868 103.93 34.0745ZM110.168 34.0745C110.168 33.4723 110.041 32.9423 109.788 32.4843C109.543 32.0179 109.205 31.6617 108.773 31.4158C108.342 31.1613 107.861 31.0341 107.328 31.0341C106.77 31.0341 106.28 31.1571 105.858 31.403C105.435 31.6405 105.105 31.9882 104.869 32.4462C104.632 32.9041 104.514 33.4469 104.514 34.0745C104.514 34.702 104.632 35.2448 104.869 35.7028C105.105 36.1607 105.435 36.5127 105.858 36.7586C106.289 37.0045 106.779 37.1275 107.328 37.1275C107.861 37.1275 108.342 37.0045 108.773 36.7586C109.213 36.5042 109.555 36.148 109.8 35.69C110.045 35.2236 110.168 34.6851 110.168 34.0745Z" fill="#3A416E"/>
<path d="M121.589 30.4871C122.375 30.4871 123.017 30.7415 123.516 31.2504C124.015 31.7507 124.264 32.497 124.264 33.4893V37.5346H123.706V33.5275C123.706 32.7048 123.508 32.0772 123.11 31.6447C122.722 31.2037 122.185 30.9832 121.5 30.9832C120.79 30.9832 120.22 31.2292 119.789 31.7211C119.358 32.2129 119.142 32.9253 119.142 33.8582V37.5346H118.584V33.5275C118.584 32.7048 118.386 32.0772 117.988 31.6447C117.6 31.2037 117.063 30.9832 116.378 30.9832C115.668 30.9832 115.098 31.2292 114.667 31.7211C114.236 32.2129 114.02 32.9253 114.02 33.8582V37.5346H113.45V30.627H114.02V32.1281C114.215 31.5854 114.527 31.1783 114.958 30.9069C115.398 30.627 115.901 30.4871 116.467 30.4871C117.093 30.4871 117.629 30.6525 118.077 30.9832C118.534 31.3055 118.846 31.7847 119.015 32.4207C119.176 31.7847 119.489 31.3055 119.954 30.9832C120.418 30.6525 120.964 30.4871 121.589 30.4871Z" fill="#3A416E"/>
<path d="M121.589 30.4871C122.375 30.4871 123.017 30.7415 123.516 31.2504C124.015 31.7507 124.264 32.497 124.264 33.4893V37.5346H123.706V33.5275C123.706 32.7048 123.508 32.0772 123.11 31.6447C122.722 31.2037 122.185 30.9832 121.5 30.9832C120.79 30.9832 120.22 31.2292 119.789 31.7211C119.358 32.2129 119.142 32.9253 119.142 33.8582V37.5346H118.584V33.5275C118.584 32.7048 118.386 32.0772 117.988 31.6447C117.6 31.2037 117.063 30.9832 116.378 30.9832C115.668 30.9832 115.098 31.2292 114.667 31.7211C114.236 32.2129 114.02 32.9253 114.02 33.8582V37.5346H113.45V30.627H114.02V32.1281C114.215 31.5854 114.527 31.1783 114.958 30.9069C115.398 30.627 115.901 30.4871 116.467 30.4871C117.093 30.4871 117.629 30.6525 118.077 30.9832C118.534 31.3055 118.846 31.7847 119.015 32.4207C119.176 31.7847 119.489 31.3055 119.954 30.9832C120.418 30.6525 120.964 30.4871 121.589 30.4871Z" fill="#3A416E"/>
<path d="M121.589 30.4871C122.375 30.4871 123.017 30.7415 123.516 31.2504C124.015 31.7507 124.264 32.497 124.264 33.4893V37.5346H123.706V33.5275C123.706 32.7048 123.508 32.0772 123.11 31.6447C122.722 31.2037 122.185 30.9832 121.5 30.9832C120.79 30.9832 120.22 31.2292 119.789 31.7211C119.358 32.2129 119.142 32.9253 119.142 33.8582V37.5346H118.584V33.5275C118.584 32.7048 118.386 32.0772 117.988 31.6447C117.6 31.2037 117.063 30.9832 116.378 30.9832C115.668 30.9832 115.098 31.2292 114.667 31.7211C114.236 32.2129 114.02 32.9253 114.02 33.8582V37.5346H113.45V30.627H114.02V32.1281C114.215 31.5854 114.527 31.1783 114.958 30.9069C115.398 30.627 115.901 30.4871 116.467 30.4871C117.093 30.4871 117.629 30.6525 118.077 30.9832C118.534 31.3055 118.846 31.7847 119.015 32.4207C119.176 31.7847 119.489 31.3055 119.954 30.9832C120.418 30.6525 120.964 30.4871 121.589 30.4871Z" fill="#3A416E"/>
<path d="M127.214 29.0878C127.079 29.0878 126.965 29.0454 126.872 28.9606C126.779 28.8673 126.732 28.7443 126.732 28.5917C126.732 28.4475 126.779 28.3288 126.872 28.2355C126.965 28.1422 127.079 28.0956 127.214 28.0956C127.349 28.0956 127.463 28.1422 127.556 28.2355C127.649 28.3288 127.696 28.4475 127.696 28.5917C127.696 28.7443 127.649 28.8673 127.556 28.9606C127.463 29.0454 127.349 29.0878 127.214 29.0878ZM127.493 30.627V37.5346H126.923V30.627H127.493Z" fill="#3A416E"/>
<path d="M127.214 29.0878C127.079 29.0878 126.965 29.0454 126.872 28.9606C126.779 28.8673 126.732 28.7443 126.732 28.5917C126.732 28.4475 126.779 28.3288 126.872 28.2355C126.965 28.1422 127.079 28.0956 127.214 28.0956C127.349 28.0956 127.463 28.1422 127.556 28.2355C127.649 28.3288 127.696 28.4475 127.696 28.5917C127.696 28.7443 127.649 28.8673 127.556 28.9606C127.463 29.0454 127.349 29.0878 127.214 29.0878ZM127.493 30.627V37.5346H126.923V30.627H127.493Z" fill="#3A416E"/>
<path d="M127.214 29.0878C127.079 29.0878 126.965 29.0454 126.872 28.9606C126.779 28.8673 126.732 28.7443 126.732 28.5917C126.732 28.4475 126.779 28.3288 126.872 28.2355C126.965 28.1422 127.079 28.0956 127.214 28.0956C127.349 28.0956 127.463 28.1422 127.556 28.2355C127.649 28.3288 127.696 28.4475 127.696 28.5917C127.696 28.7443 127.649 28.8673 127.556 28.9606C127.463 29.0454 127.349 29.0878 127.214 29.0878ZM127.493 30.627V37.5346H126.923V30.627H127.493Z" fill="#3A416E"/>
<path d="M133.324 30.4871C134.144 30.4871 134.812 30.7415 135.327 31.2504C135.843 31.7507 136.101 32.497 136.101 33.4893V37.5346H135.543V33.5275C135.543 32.7048 135.336 32.0772 134.922 31.6447C134.508 31.2037 133.946 30.9832 133.236 30.9832C132.492 30.9832 131.896 31.2207 131.448 31.6956C131.009 32.1705 130.789 32.8744 130.789 33.8073V37.5346H130.218V30.627H130.789V32.09C130.983 31.5726 131.304 31.1783 131.752 30.9069C132.209 30.627 132.733 30.4871 133.324 30.4871Z" fill="#3A416E"/>
<path d="M133.324 30.4871C134.144 30.4871 134.812 30.7415 135.327 31.2504C135.843 31.7507 136.101 32.497 136.101 33.4893V37.5346H135.543V33.5275C135.543 32.7048 135.336 32.0772 134.922 31.6447C134.508 31.2037 133.946 30.9832 133.236 30.9832C132.492 30.9832 131.896 31.2207 131.448 31.6956C131.009 32.1705 130.789 32.8744 130.789 33.8073V37.5346H130.218V30.627H130.789V32.09C130.983 31.5726 131.304 31.1783 131.752 30.9069C132.209 30.627 132.733 30.4871 133.324 30.4871Z" fill="#3A416E"/>
<path d="M133.324 30.4871C134.144 30.4871 134.812 30.7415 135.327 31.2504C135.843 31.7507 136.101 32.497 136.101 33.4893V37.5346H135.543V33.5275C135.543 32.7048 135.336 32.0772 134.922 31.6447C134.508 31.2037 133.946 30.9832 133.236 30.9832C132.492 30.9832 131.896 31.2207 131.448 31.6956C131.009 32.1705 130.789 32.8744 130.789 33.8073V37.5346H130.218V30.627H130.789V32.09C130.983 31.5726 131.304 31.1783 131.752 30.9069C132.209 30.627 132.733 30.4871 133.324 30.4871Z" fill="#3A416E"/>
<path d="M139.043 29.0878C138.907 29.0878 138.793 29.0454 138.7 28.9606C138.607 28.8673 138.561 28.7443 138.561 28.5917C138.561 28.4475 138.607 28.3288 138.7 28.2355C138.793 28.1422 138.907 28.0956 139.043 28.0956C139.178 28.0956 139.292 28.1422 139.385 28.2355C139.478 28.3288 139.524 28.4475 139.524 28.5917C139.524 28.7443 139.478 28.8673 139.385 28.9606C139.292 29.0454 139.178 29.0878 139.043 29.0878ZM139.322 30.627V37.5346H138.751V30.627H139.322Z" fill="#3A416E"/>
<path d="M139.043 29.0878C138.907 29.0878 138.793 29.0454 138.7 28.9606C138.607 28.8673 138.561 28.7443 138.561 28.5917C138.561 28.4475 138.607 28.3288 138.7 28.2355C138.793 28.1422 138.907 28.0956 139.043 28.0956C139.178 28.0956 139.292 28.1422 139.385 28.2355C139.478 28.3288 139.524 28.4475 139.524 28.5917C139.524 28.7443 139.478 28.8673 139.385 28.9606C139.292 29.0454 139.178 29.0878 139.043 29.0878ZM139.322 30.627V37.5346H138.751V30.627H139.322Z" fill="#3A416E"/>
<path d="M139.043 29.0878C138.907 29.0878 138.793 29.0454 138.7 28.9606C138.607 28.8673 138.561 28.7443 138.561 28.5917C138.561 28.4475 138.607 28.3288 138.7 28.2355C138.793 28.1422 138.907 28.0956 139.043 28.0956C139.178 28.0956 139.292 28.1422 139.385 28.2355C139.478 28.3288 139.524 28.4475 139.524 28.5917C139.524 28.7443 139.478 28.8673 139.385 28.9606C139.292 29.0454 139.178 29.0878 139.043 29.0878ZM139.322 30.627V37.5346H138.751V30.627H139.322Z" fill="#3A416E"/>
<path d="M144.342 37.6364C143.572 37.6364 142.943 37.4667 142.453 37.1275C141.971 36.7883 141.7 36.3049 141.641 35.6773H142.224C142.267 36.1268 142.469 36.483 142.833 36.7459C143.205 37.0088 143.708 37.1402 144.342 37.1402C144.866 37.1402 145.28 37.0088 145.584 36.7459C145.897 36.4745 146.053 36.1438 146.053 35.7536C146.053 35.4823 145.969 35.2618 145.8 35.0921C145.639 34.914 145.436 34.7784 145.191 34.6851C144.946 34.5918 144.612 34.49 144.189 34.3798C143.682 34.2441 143.272 34.1126 142.96 33.9854C142.647 33.8497 142.381 33.6504 142.161 33.3875C141.941 33.1246 141.831 32.7727 141.831 32.3317C141.831 32.0094 141.929 31.7126 142.123 31.4412C142.317 31.1613 142.588 30.9408 142.934 30.7797C143.281 30.6186 143.674 30.538 144.113 30.538C144.832 30.538 145.411 30.7203 145.85 31.085C146.298 31.4412 146.539 31.9373 146.573 32.5734H146.002C145.977 32.1154 145.8 31.7423 145.47 31.4539C145.14 31.1656 144.684 31.0214 144.101 31.0214C143.61 31.0214 143.205 31.1486 142.884 31.403C142.562 31.6575 142.402 31.967 142.402 32.3317C142.402 32.6539 142.491 32.9168 142.668 33.1204C142.854 33.3154 143.078 33.4681 143.34 33.5783C143.61 33.6801 143.965 33.7904 144.405 33.9091C144.887 34.0363 145.271 34.1635 145.559 34.2907C145.854 34.4094 146.104 34.5875 146.307 34.825C146.51 35.054 146.611 35.3635 146.611 35.7536C146.611 36.1098 146.514 36.4321 146.319 36.7204C146.125 37.0088 145.854 37.2335 145.508 37.3947C145.161 37.5558 144.773 37.6364 144.342 37.6364Z" fill="#3A416E"/>
<path d="M144.342 37.6364C143.572 37.6364 142.943 37.4667 142.453 37.1275C141.971 36.7883 141.7 36.3049 141.641 35.6773H142.224C142.267 36.1268 142.469 36.483 142.833 36.7459C143.205 37.0088 143.708 37.1402 144.342 37.1402C144.866 37.1402 145.28 37.0088 145.584 36.7459C145.897 36.4745 146.053 36.1438 146.053 35.7536C146.053 35.4823 145.969 35.2618 145.8 35.0921C145.639 34.914 145.436 34.7784 145.191 34.6851C144.946 34.5918 144.612 34.49 144.189 34.3798C143.682 34.2441 143.272 34.1126 142.96 33.9854C142.647 33.8497 142.381 33.6504 142.161 33.3875C141.941 33.1246 141.831 32.7727 141.831 32.3317C141.831 32.0094 141.929 31.7126 142.123 31.4412C142.317 31.1613 142.588 30.9408 142.934 30.7797C143.281 30.6186 143.674 30.538 144.113 30.538C144.832 30.538 145.411 30.7203 145.85 31.085C146.298 31.4412 146.539 31.9373 146.573 32.5734H146.002C145.977 32.1154 145.8 31.7423 145.47 31.4539C145.14 31.1656 144.684 31.0214 144.101 31.0214C143.61 31.0214 143.205 31.1486 142.884 31.403C142.562 31.6575 142.402 31.967 142.402 32.3317C142.402 32.6539 142.491 32.9168 142.668 33.1204C142.854 33.3154 143.078 33.4681 143.34 33.5783C143.61 33.6801 143.965 33.7904 144.405 33.9091C144.887 34.0363 145.271 34.1635 145.559 34.2907C145.854 34.4094 146.104 34.5875 146.307 34.825C146.51 35.054 146.611 35.3635 146.611 35.7536C146.611 36.1098 146.514 36.4321 146.319 36.7204C146.125 37.0088 145.854 37.2335 145.508 37.3947C145.161 37.5558 144.773 37.6364 144.342 37.6364Z" fill="#3A416E"/>
<path d="M144.342 37.6364C143.572 37.6364 142.943 37.4667 142.453 37.1275C141.971 36.7883 141.7 36.3049 141.641 35.6773H142.224C142.267 36.1268 142.469 36.483 142.833 36.7459C143.205 37.0088 143.708 37.1402 144.342 37.1402C144.866 37.1402 145.28 37.0088 145.584 36.7459C145.897 36.4745 146.053 36.1438 146.053 35.7536C146.053 35.4823 145.969 35.2618 145.8 35.0921C145.639 34.914 145.436 34.7784 145.191 34.6851C144.946 34.5918 144.612 34.49 144.189 34.3798C143.682 34.2441 143.272 34.1126 142.96 33.9854C142.647 33.8497 142.381 33.6504 142.161 33.3875C141.941 33.1246 141.831 32.7727 141.831 32.3317C141.831 32.0094 141.929 31.7126 142.123 31.4412C142.317 31.1613 142.588 30.9408 142.934 30.7797C143.281 30.6186 143.674 30.538 144.113 30.538C144.832 30.538 145.411 30.7203 145.85 31.085C146.298 31.4412 146.539 31.9373 146.573 32.5734H146.002C145.977 32.1154 145.8 31.7423 145.47 31.4539C145.14 31.1656 144.684 31.0214 144.101 31.0214C143.61 31.0214 143.205 31.1486 142.884 31.403C142.562 31.6575 142.402 31.967 142.402 32.3317C142.402 32.6539 142.491 32.9168 142.668 33.1204C142.854 33.3154 143.078 33.4681 143.34 33.5783C143.61 33.6801 143.965 33.7904 144.405 33.9091C144.887 34.0363 145.271 34.1635 145.559 34.2907C145.854 34.4094 146.104 34.5875 146.307 34.825C146.51 35.054 146.611 35.3635 146.611 35.7536C146.611 36.1098 146.514 36.4321 146.319 36.7204C146.125 37.0088 145.854 37.2335 145.508 37.3947C145.161 37.5558 144.773 37.6364 144.342 37.6364Z" fill="#3A416E"/>
<path d="M149.832 31.1232V35.69C149.832 36.1989 149.925 36.5508 150.111 36.7459C150.297 36.9325 150.626 37.0257 151.1 37.0257H151.873V37.5346H151.011C150.411 37.5346 149.967 37.3947 149.68 37.1148C149.401 36.8265 149.262 36.3515 149.262 35.69V31.1232H148.222V30.627H149.262V28.8715H149.832V30.627H151.873V31.1232H149.832Z" fill="#3A416E"/>
<path d="M149.832 31.1232V35.69C149.832 36.1989 149.925 36.5508 150.111 36.7459C150.297 36.9325 150.626 37.0257 151.1 37.0257H151.873V37.5346H151.011C150.411 37.5346 149.967 37.3947 149.68 37.1148C149.401 36.8265 149.262 36.3515 149.262 35.69V31.1232H148.222V30.627H149.262V28.8715H149.832V30.627H151.873V31.1232H149.832Z" fill="#3A416E"/>
<path d="M149.832 31.1232V35.69C149.832 36.1989 149.925 36.5508 150.111 36.7459C150.297 36.9325 150.626 37.0257 151.1 37.0257H151.873V37.5346H151.011C150.411 37.5346 149.967 37.3947 149.68 37.1148C149.401 36.8265 149.262 36.3515 149.262 35.69V31.1232H148.222V30.627H149.262V28.8715H149.832V30.627H151.873V31.1232H149.832Z" fill="#3A416E"/>
<path d="M154.582 32.0518C154.751 31.543 155.051 31.1571 155.482 30.8942C155.913 30.6228 156.463 30.4871 157.13 30.4871V31.085H156.94C156.264 31.085 155.702 31.2801 155.254 31.6702C154.806 32.0518 154.582 32.6794 154.582 33.5529V37.5346H154.012V30.627H154.582V32.0518Z" fill="#3A416E"/>
<path d="M154.582 32.0518C154.751 31.543 155.051 31.1571 155.482 30.8942C155.913 30.6228 156.463 30.4871 157.13 30.4871V31.085H156.94C156.264 31.085 155.702 31.2801 155.254 31.6702C154.806 32.0518 154.582 32.6794 154.582 33.5529V37.5346H154.012V30.627H154.582V32.0518Z" fill="#3A416E"/>
<path d="M154.582 32.0518C154.751 31.543 155.051 31.1571 155.482 30.8942C155.913 30.6228 156.463 30.4871 157.13 30.4871V31.085H156.94C156.264 31.085 155.702 31.2801 155.254 31.6702C154.806 32.0518 154.582 32.6794 154.582 33.5529V37.5346H154.012V30.627H154.582V32.0518Z" fill="#3A416E"/>
<path d="M158.723 34.0745C158.723 33.3621 158.862 32.7387 159.141 32.2045C159.429 31.6702 159.822 31.2589 160.32 30.9705C160.827 30.6822 161.402 30.538 162.045 30.538C162.771 30.538 163.388 30.7161 163.896 31.0723C164.403 31.4285 164.758 31.8822 164.96 32.4334V30.627H165.531V37.5346H164.96V35.7155C164.758 36.2752 164.398 36.7374 163.883 37.1021C163.376 37.4583 162.763 37.6364 162.045 37.6364C161.402 37.6364 160.827 37.4922 160.32 37.2038C159.822 36.907 159.429 36.4915 159.141 35.9572C158.862 35.4144 158.723 34.7868 158.723 34.0745ZM164.96 34.0745C164.96 33.4723 164.834 32.9423 164.58 32.4843C164.335 32.0179 163.997 31.6617 163.566 31.4158C163.135 31.1613 162.653 31.0341 162.121 31.0341C161.563 31.0341 161.073 31.1571 160.65 31.403C160.227 31.6405 159.898 31.9882 159.661 32.4462C159.424 32.9041 159.306 33.4469 159.306 34.0745C159.306 34.702 159.424 35.2448 159.661 35.7028C159.898 36.1607 160.227 36.5127 160.65 36.7586C161.081 37.0045 161.571 37.1275 162.121 37.1275C162.653 37.1275 163.135 37.0045 163.566 36.7586C164.005 36.5042 164.348 36.148 164.593 35.69C164.838 35.2236 164.96 34.6851 164.96 34.0745Z" fill="#3A416E"/>
<path d="M158.723 34.0745C158.723 33.3621 158.862 32.7387 159.141 32.2045C159.429 31.6702 159.822 31.2589 160.32 30.9705C160.827 30.6822 161.402 30.538 162.045 30.538C162.771 30.538 163.388 30.7161 163.896 31.0723C164.403 31.4285 164.758 31.8822 164.96 32.4334V30.627H165.531V37.5346H164.96V35.7155C164.758 36.2752 164.398 36.7374 163.883 37.1021C163.376 37.4583 162.763 37.6364 162.045 37.6364C161.402 37.6364 160.827 37.4922 160.32 37.2038C159.822 36.907 159.429 36.4915 159.141 35.9572C158.862 35.4144 158.723 34.7868 158.723 34.0745ZM164.96 34.0745C164.96 33.4723 164.834 32.9423 164.58 32.4843C164.335 32.0179 163.997 31.6617 163.566 31.4158C163.135 31.1613 162.653 31.0341 162.121 31.0341C161.563 31.0341 161.073 31.1571 160.65 31.403C160.227 31.6405 159.898 31.9882 159.661 32.4462C159.424 32.9041 159.306 33.4469 159.306 34.0745C159.306 34.702 159.424 35.2448 159.661 35.7028C159.898 36.1607 160.227 36.5127 160.65 36.7586C161.081 37.0045 161.571 37.1275 162.121 37.1275C162.653 37.1275 163.135 37.0045 163.566 36.7586C164.005 36.5042 164.348 36.148 164.593 35.69C164.838 35.2236 164.96 34.6851 164.96 34.0745Z" fill="#3A416E"/>
<path d="M158.723 34.0745C158.723 33.3621 158.862 32.7387 159.141 32.2045C159.429 31.6702 159.822 31.2589 160.32 30.9705C160.827 30.6822 161.402 30.538 162.045 30.538C162.771 30.538 163.388 30.7161 163.896 31.0723C164.403 31.4285 164.758 31.8822 164.96 32.4334V30.627H165.531V37.5346H164.96V35.7155C164.758 36.2752 164.398 36.7374 163.883 37.1021C163.376 37.4583 162.763 37.6364 162.045 37.6364C161.402 37.6364 160.827 37.4922 160.32 37.2038C159.822 36.907 159.429 36.4915 159.141 35.9572C158.862 35.4144 158.723 34.7868 158.723 34.0745ZM164.96 34.0745C164.96 33.4723 164.834 32.9423 164.58 32.4843C164.335 32.0179 163.997 31.6617 163.566 31.4158C163.135 31.1613 162.653 31.0341 162.121 31.0341C161.563 31.0341 161.073 31.1571 160.65 31.403C160.227 31.6405 159.898 31.9882 159.661 32.4462C159.424 32.9041 159.306 33.4469 159.306 34.0745C159.306 34.702 159.424 35.2448 159.661 35.7028C159.898 36.1607 160.227 36.5127 160.65 36.7586C161.081 37.0045 161.571 37.1275 162.121 37.1275C162.653 37.1275 163.135 37.0045 163.566 36.7586C164.005 36.5042 164.348 36.148 164.593 35.69C164.838 35.2236 164.96 34.6851 164.96 34.0745Z" fill="#3A416E"/>
<path d="M170.537 37.6364C169.768 37.6364 169.138 37.4667 168.648 37.1275C168.166 36.7883 167.896 36.3049 167.836 35.6773H168.42C168.462 36.1268 168.665 36.483 169.028 36.7459C169.4 37.0088 169.903 37.1402 170.537 37.1402C171.061 37.1402 171.475 37.0088 171.779 36.7459C172.092 36.4745 172.248 36.1438 172.248 35.7536C172.248 35.4823 172.164 35.2618 171.995 35.0921C171.834 34.914 171.631 34.7784 171.386 34.6851C171.141 34.5918 170.807 34.49 170.385 34.3798C169.878 34.2441 169.468 34.1126 169.155 33.9854C168.842 33.8497 168.576 33.6504 168.356 33.3875C168.136 33.1246 168.027 32.7727 168.027 32.3317C168.027 32.0094 168.124 31.7126 168.318 31.4412C168.513 31.1613 168.783 30.9408 169.13 30.7797C169.476 30.6186 169.869 30.538 170.309 30.538C171.027 30.538 171.606 30.7203 172.046 31.085C172.493 31.4412 172.734 31.9373 172.768 32.5734H172.198C172.172 32.1154 171.995 31.7423 171.665 31.4539C171.336 31.1656 170.879 31.0214 170.296 31.0214C169.806 31.0214 169.4 31.1486 169.079 31.403C168.758 31.6575 168.597 31.967 168.597 32.3317C168.597 32.6539 168.686 32.9168 168.863 33.1204C169.049 33.3154 169.273 33.4681 169.535 33.5783C169.806 33.6801 170.161 33.7904 170.6 33.9091C171.082 34.0363 171.467 34.1635 171.754 34.2907C172.05 34.4094 172.299 34.5875 172.502 34.825C172.705 35.054 172.806 35.3635 172.806 35.7536C172.806 36.1098 172.709 36.4321 172.515 36.7204C172.32 37.0088 172.05 37.2335 171.703 37.3947C171.357 37.5558 170.968 37.6364 170.537 37.6364Z" fill="#3A416E"/>
<path d="M170.537 37.6364C169.768 37.6364 169.138 37.4667 168.648 37.1275C168.166 36.7883 167.896 36.3049 167.836 35.6773H168.42C168.462 36.1268 168.665 36.483 169.028 36.7459C169.4 37.0088 169.903 37.1402 170.537 37.1402C171.061 37.1402 171.475 37.0088 171.779 36.7459C172.092 36.4745 172.248 36.1438 172.248 35.7536C172.248 35.4823 172.164 35.2618 171.995 35.0921C171.834 34.914 171.631 34.7784 171.386 34.6851C171.141 34.5918 170.807 34.49 170.385 34.3798C169.878 34.2441 169.468 34.1126 169.155 33.9854C168.842 33.8497 168.576 33.6504 168.356 33.3875C168.136 33.1246 168.027 32.7727 168.027 32.3317C168.027 32.0094 168.124 31.7126 168.318 31.4412C168.513 31.1613 168.783 30.9408 169.13 30.7797C169.476 30.6186 169.869 30.538 170.309 30.538C171.027 30.538 171.606 30.7203 172.046 31.085C172.493 31.4412 172.734 31.9373 172.768 32.5734H172.198C172.172 32.1154 171.995 31.7423 171.665 31.4539C171.336 31.1656 170.879 31.0214 170.296 31.0214C169.806 31.0214 169.4 31.1486 169.079 31.403C168.758 31.6575 168.597 31.967 168.597 32.3317C168.597 32.6539 168.686 32.9168 168.863 33.1204C169.049 33.3154 169.273 33.4681 169.535 33.5783C169.806 33.6801 170.161 33.7904 170.6 33.9091C171.082 34.0363 171.467 34.1635 171.754 34.2907C172.05 34.4094 172.299 34.5875 172.502 34.825C172.705 35.054 172.806 35.3635 172.806 35.7536C172.806 36.1098 172.709 36.4321 172.515 36.7204C172.32 37.0088 172.05 37.2335 171.703 37.3947C171.357 37.5558 170.968 37.6364 170.537 37.6364Z" fill="#3A416E"/>
<path d="M170.537 37.6364C169.768 37.6364 169.138 37.4667 168.648 37.1275C168.166 36.7883 167.896 36.3049 167.836 35.6773H168.42C168.462 36.1268 168.665 36.483 169.028 36.7459C169.4 37.0088 169.903 37.1402 170.537 37.1402C171.061 37.1402 171.475 37.0088 171.779 36.7459C172.092 36.4745 172.248 36.1438 172.248 35.7536C172.248 35.4823 172.164 35.2618 171.995 35.0921C171.834 34.914 171.631 34.7784 171.386 34.6851C171.141 34.5918 170.807 34.49 170.385 34.3798C169.878 34.2441 169.468 34.1126 169.155 33.9854C168.842 33.8497 168.576 33.6504 168.356 33.3875C168.136 33.1246 168.027 32.7727 168.027 32.3317C168.027 32.0094 168.124 31.7126 168.318 31.4412C168.513 31.1613 168.783 30.9408 169.13 30.7797C169.476 30.6186 169.869 30.538 170.309 30.538C171.027 30.538 171.606 30.7203 172.046 31.085C172.493 31.4412 172.734 31.9373 172.768 32.5734H172.198C172.172 32.1154 171.995 31.7423 171.665 31.4539C171.336 31.1656 170.879 31.0214 170.296 31.0214C169.806 31.0214 169.4 31.1486 169.079 31.403C168.758 31.6575 168.597 31.967 168.597 32.3317C168.597 32.6539 168.686 32.9168 168.863 33.1204C169.049 33.3154 169.273 33.4681 169.535 33.5783C169.806 33.6801 170.161 33.7904 170.6 33.9091C171.082 34.0363 171.467 34.1635 171.754 34.2907C172.05 34.4094 172.299 34.5875 172.502 34.825C172.705 35.054 172.806 35.3635 172.806 35.7536C172.806 36.1098 172.709 36.4321 172.515 36.7204C172.32 37.0088 172.05 37.2335 171.703 37.3947C171.357 37.5558 170.968 37.6364 170.537 37.6364Z" fill="#3A416E"/>
<path d="M175.469 29.0878C175.334 29.0878 175.22 29.0454 175.127 28.9606C175.034 28.8673 174.988 28.7443 174.988 28.5917C174.988 28.4475 175.034 28.3288 175.127 28.2355C175.22 28.1422 175.334 28.0956 175.469 28.0956C175.605 28.0956 175.719 28.1422 175.812 28.2355C175.905 28.3288 175.951 28.4475 175.951 28.5917C175.951 28.7443 175.905 28.8673 175.812 28.9606C175.719 29.0454 175.605 29.0878 175.469 29.0878ZM175.748 30.627V37.5346H175.178V30.627H175.748Z" fill="#3A416E"/>
<path d="M175.469 29.0878C175.334 29.0878 175.22 29.0454 175.127 28.9606C175.034 28.8673 174.988 28.7443 174.988 28.5917C174.988 28.4475 175.034 28.3288 175.127 28.2355C175.22 28.1422 175.334 28.0956 175.469 28.0956C175.605 28.0956 175.719 28.1422 175.812 28.2355C175.905 28.3288 175.951 28.4475 175.951 28.5917C175.951 28.7443 175.905 28.8673 175.812 28.9606C175.719 29.0454 175.605 29.0878 175.469 29.0878ZM175.748 30.627V37.5346H175.178V30.627H175.748Z" fill="#3A416E"/>
<path d="M175.469 29.0878C175.334 29.0878 175.22 29.0454 175.127 28.9606C175.034 28.8673 174.988 28.7443 174.988 28.5917C174.988 28.4475 175.034 28.3288 175.127 28.2355C175.22 28.1422 175.334 28.0956 175.469 28.0956C175.605 28.0956 175.719 28.1422 175.812 28.2355C175.905 28.3288 175.951 28.4475 175.951 28.5917C175.951 28.7443 175.905 28.8673 175.812 28.9606C175.719 29.0454 175.605 29.0878 175.469 29.0878ZM175.748 30.627V37.5346H175.178V30.627H175.748Z" fill="#3A416E"/>
<path d="M182.331 34.0745C182.331 33.3621 182.47 32.7387 182.749 32.2045C183.036 31.6702 183.429 31.2589 183.928 30.9705C184.435 30.6822 185.01 30.538 185.652 30.538C186.379 30.538 186.996 30.7161 187.503 31.0723C188.01 31.4285 188.365 31.8822 188.568 32.4334V30.627H189.139V37.5346H188.568V35.7155C188.365 36.2752 188.006 36.7374 187.491 37.1021C186.983 37.4583 186.371 37.6364 185.652 37.6364C185.01 37.6364 184.435 37.4922 183.928 37.2038C183.429 36.907 183.036 36.4915 182.749 35.9572C182.47 35.4144 182.331 34.7868 182.331 34.0745ZM188.568 34.0745C188.568 33.4723 188.441 32.9423 188.188 32.4843C187.943 32.0179 187.605 31.6617 187.174 31.4158C186.743 31.1613 186.261 31.0341 185.728 31.0341C185.17 31.0341 184.68 31.1571 184.258 31.403C183.835 31.6405 183.505 31.9882 183.269 32.4462C183.032 32.9041 182.914 33.4469 182.914 34.0745C182.914 34.702 183.032 35.2448 183.269 35.7028C183.505 36.1607 183.835 36.5127 184.258 36.7586C184.689 37.0045 185.179 37.1275 185.728 37.1275C186.261 37.1275 186.743 37.0045 187.174 36.7586C187.613 36.5042 187.955 36.148 188.2 35.69C188.446 35.2236 188.568 34.6851 188.568 34.0745Z" fill="#3A416E"/>
<path d="M182.331 34.0745C182.331 33.3621 182.47 32.7387 182.749 32.2045C183.036 31.6702 183.429 31.2589 183.928 30.9705C184.435 30.6822 185.01 30.538 185.652 30.538C186.379 30.538 186.996 30.7161 187.503 31.0723C188.01 31.4285 188.365 31.8822 188.568 32.4334V30.627H189.139V37.5346H188.568V35.7155C188.365 36.2752 188.006 36.7374 187.491 37.1021C186.983 37.4583 186.371 37.6364 185.652 37.6364C185.01 37.6364 184.435 37.4922 183.928 37.2038C183.429 36.907 183.036 36.4915 182.749 35.9572C182.47 35.4144 182.331 34.7868 182.331 34.0745ZM188.568 34.0745C188.568 33.4723 188.441 32.9423 188.188 32.4843C187.943 32.0179 187.605 31.6617 187.174 31.4158C186.743 31.1613 186.261 31.0341 185.728 31.0341C185.17 31.0341 184.68 31.1571 184.258 31.403C183.835 31.6405 183.505 31.9882 183.269 32.4462C183.032 32.9041 182.914 33.4469 182.914 34.0745C182.914 34.702 183.032 35.2448 183.269 35.7028C183.505 36.1607 183.835 36.5127 184.258 36.7586C184.689 37.0045 185.179 37.1275 185.728 37.1275C186.261 37.1275 186.743 37.0045 187.174 36.7586C187.613 36.5042 187.955 36.148 188.2 35.69C188.446 35.2236 188.568 34.6851 188.568 34.0745Z" fill="#3A416E"/>
<path d="M182.331 34.0745C182.331 33.3621 182.47 32.7387 182.749 32.2045C183.036 31.6702 183.429 31.2589 183.928 30.9705C184.435 30.6822 185.01 30.538 185.652 30.538C186.379 30.538 186.996 30.7161 187.503 31.0723C188.01 31.4285 188.365 31.8822 188.568 32.4334V30.627H189.139V37.5346H188.568V35.7155C188.365 36.2752 188.006 36.7374 187.491 37.1021C186.983 37.4583 186.371 37.6364 185.652 37.6364C185.01 37.6364 184.435 37.4922 183.928 37.2038C183.429 36.907 183.036 36.4915 182.749 35.9572C182.47 35.4144 182.331 34.7868 182.331 34.0745ZM188.568 34.0745C188.568 33.4723 188.441 32.9423 188.188 32.4843C187.943 32.0179 187.605 31.6617 187.174 31.4158C186.743 31.1613 186.261 31.0341 185.728 31.0341C185.17 31.0341 184.68 31.1571 184.258 31.403C183.835 31.6405 183.505 31.9882 183.269 32.4462C183.032 32.9041 182.914 33.4469 182.914 34.0745C182.914 34.702 183.032 35.2448 183.269 35.7028C183.505 36.1607 183.835 36.5127 184.258 36.7586C184.689 37.0045 185.179 37.1275 185.728 37.1275C186.261 37.1275 186.743 37.0045 187.174 36.7586C187.613 36.5042 187.955 36.148 188.2 35.69C188.446 35.2236 188.568 34.6851 188.568 34.0745Z" fill="#3A416E"/>
<path d="M194.956 30.4871C195.776 30.4871 196.443 30.7415 196.959 31.2504C197.475 31.7507 197.732 32.497 197.732 33.4893V37.5346H197.175V33.5275C197.175 32.7048 196.968 32.0772 196.553 31.6447C196.139 31.2037 195.577 30.9832 194.867 30.9832C194.123 30.9832 193.528 31.2207 193.08 31.6956C192.64 32.1705 192.42 32.8744 192.42 33.8073V37.5346H191.85V30.627H192.42V32.09C192.615 31.5726 192.936 31.1783 193.384 30.9069C193.84 30.627 194.364 30.4871 194.956 30.4871Z" fill="#3A416E"/>
<path d="M194.956 30.4871C195.776 30.4871 196.443 30.7415 196.959 31.2504C197.475 31.7507 197.732 32.497 197.732 33.4893V37.5346H197.175V33.5275C197.175 32.7048 196.968 32.0772 196.553 31.6447C196.139 31.2037 195.577 30.9832 194.867 30.9832C194.123 30.9832 193.528 31.2207 193.08 31.6956C192.64 32.1705 192.42 32.8744 192.42 33.8073V37.5346H191.85V30.627H192.42V32.09C192.615 31.5726 192.936 31.1783 193.384 30.9069C193.84 30.627 194.364 30.4871 194.956 30.4871Z" fill="#3A416E"/>
<path d="M194.956 30.4871C195.776 30.4871 196.443 30.7415 196.959 31.2504C197.475 31.7507 197.732 32.497 197.732 33.4893V37.5346H197.175V33.5275C197.175 32.7048 196.968 32.0772 196.553 31.6447C196.139 31.2037 195.577 30.9832 194.867 30.9832C194.123 30.9832 193.528 31.2207 193.08 31.6956C192.64 32.1705 192.42 32.8744 192.42 33.8073V37.5346H191.85V30.627H192.42V32.09C192.615 31.5726 192.936 31.1783 193.384 30.9069C193.84 30.627 194.364 30.4871 194.956 30.4871Z" fill="#3A416E"/>
<path d="M200.028 34.0745C200.028 33.3621 200.167 32.7387 200.446 32.2045C200.733 31.6702 201.126 31.2589 201.625 30.9705C202.132 30.6822 202.707 30.538 203.349 30.538C204.051 30.538 204.659 30.7161 205.175 31.0723C205.691 31.42 206.054 31.8737 206.265 32.4334V28.121H206.836V37.5346H206.265V35.7028C206.062 36.271 205.707 36.7374 205.2 37.1021C204.693 37.4583 204.076 37.6364 203.349 37.6364C202.707 37.6364 202.132 37.4922 201.625 37.2038C201.126 36.907 200.733 36.4915 200.446 35.9572C200.167 35.4144 200.028 34.7868 200.028 34.0745ZM206.265 34.0745C206.265 33.4723 206.138 32.9423 205.885 32.4843C205.64 32.0179 205.302 31.6617 204.871 31.4158C204.44 31.1613 203.958 31.0341 203.425 31.0341C202.868 31.0341 202.377 31.1571 201.955 31.403C201.532 31.6405 201.203 31.9882 200.966 32.4462C200.729 32.9041 200.611 33.4469 200.611 34.0745C200.611 34.702 200.729 35.2448 200.966 35.7028C201.203 36.1607 201.532 36.5127 201.955 36.7586C202.386 37.0045 202.876 37.1275 203.425 37.1275C203.958 37.1275 204.44 37.0045 204.871 36.7586C205.31 36.5042 205.652 36.148 205.898 35.69C206.143 35.2236 206.265 34.6851 206.265 34.0745Z" fill="#3A416E"/>
<path d="M200.028 34.0745C200.028 33.3621 200.167 32.7387 200.446 32.2045C200.733 31.6702 201.126 31.2589 201.625 30.9705C202.132 30.6822 202.707 30.538 203.349 30.538C204.051 30.538 204.659 30.7161 205.175 31.0723C205.691 31.42 206.054 31.8737 206.265 32.4334V28.121H206.836V37.5346H206.265V35.7028C206.062 36.271 205.707 36.7374 205.2 37.1021C204.693 37.4583 204.076 37.6364 203.349 37.6364C202.707 37.6364 202.132 37.4922 201.625 37.2038C201.126 36.907 200.733 36.4915 200.446 35.9572C200.167 35.4144 200.028 34.7868 200.028 34.0745ZM206.265 34.0745C206.265 33.4723 206.138 32.9423 205.885 32.4843C205.64 32.0179 205.302 31.6617 204.871 31.4158C204.44 31.1613 203.958 31.0341 203.425 31.0341C202.868 31.0341 202.377 31.1571 201.955 31.403C201.532 31.6405 201.203 31.9882 200.966 32.4462C200.729 32.9041 200.611 33.4469 200.611 34.0745C200.611 34.702 200.729 35.2448 200.966 35.7028C201.203 36.1607 201.532 36.5127 201.955 36.7586C202.386 37.0045 202.876 37.1275 203.425 37.1275C203.958 37.1275 204.44 37.0045 204.871 36.7586C205.31 36.5042 205.652 36.148 205.898 35.69C206.143 35.2236 206.265 34.6851 206.265 34.0745Z" fill="#3A416E"/>
<path d="M200.028 34.0745C200.028 33.3621 200.167 32.7387 200.446 32.2045C200.733 31.6702 201.126 31.2589 201.625 30.9705C202.132 30.6822 202.707 30.538 203.349 30.538C204.051 30.538 204.659 30.7161 205.175 31.0723C205.691 31.42 206.054 31.8737 206.265 32.4334V28.121H206.836V37.5346H206.265V35.7028C206.062 36.271 205.707 36.7374 205.2 37.1021C204.693 37.4583 204.076 37.6364 203.349 37.6364C202.707 37.6364 202.132 37.4922 201.625 37.2038C201.126 36.907 200.733 36.4915 200.446 35.9572C200.167 35.4144 200.028 34.7868 200.028 34.0745ZM206.265 34.0745C206.265 33.4723 206.138 32.9423 205.885 32.4843C205.64 32.0179 205.302 31.6617 204.871 31.4158C204.44 31.1613 203.958 31.0341 203.425 31.0341C202.868 31.0341 202.377 31.1571 201.955 31.403C201.532 31.6405 201.203 31.9882 200.966 32.4462C200.729 32.9041 200.611 33.4469 200.611 34.0745C200.611 34.702 200.729 35.2448 200.966 35.7028C201.203 36.1607 201.532 36.5127 201.955 36.7586C202.386 37.0045 202.876 37.1275 203.425 37.1275C203.958 37.1275 204.44 37.0045 204.871 36.7586C205.31 36.5042 205.652 36.148 205.898 35.69C206.143 35.2236 206.265 34.6851 206.265 34.0745Z" fill="#3A416E"/>
<path d="M209.192 34.0745C209.192 33.3621 209.331 32.7387 209.61 32.2045C209.898 31.6702 210.291 31.2589 210.789 30.9705C211.296 30.6822 211.871 30.538 212.514 30.538C213.24 30.538 213.857 30.7161 214.365 31.0723C214.872 31.4285 215.227 31.8822 215.429 32.4334V30.627H216V37.5346H215.429V35.7155C215.227 36.2752 214.867 36.7374 214.352 37.1021C213.845 37.4583 213.232 37.6364 212.514 37.6364C211.871 37.6364 211.296 37.4922 210.789 37.2038C210.291 36.907 209.898 36.4915 209.61 35.9572C209.331 35.4144 209.192 34.7868 209.192 34.0745ZM215.429 34.0745C215.429 33.4723 215.303 32.9423 215.049 32.4843C214.804 32.0179 214.466 31.6617 214.035 31.4158C213.604 31.1613 213.122 31.0341 212.59 31.0341C212.032 31.0341 211.542 31.1571 211.119 31.403C210.696 31.6405 210.367 31.9882 210.13 32.4462C209.893 32.9041 209.775 33.4469 209.775 34.0745C209.775 34.702 209.893 35.2448 210.13 35.7028C210.367 36.1607 210.696 36.5127 211.119 36.7586C211.55 37.0045 212.04 37.1275 212.59 37.1275C213.122 37.1275 213.604 37.0045 214.035 36.7586C214.474 36.5042 214.817 36.148 215.062 35.69C215.307 35.2236 215.429 34.6851 215.429 34.0745Z" fill="#3A416E"/>
<path d="M209.192 34.0745C209.192 33.3621 209.331 32.7387 209.61 32.2045C209.898 31.6702 210.291 31.2589 210.789 30.9705C211.296 30.6822 211.871 30.538 212.514 30.538C213.24 30.538 213.857 30.7161 214.365 31.0723C214.872 31.4285 215.227 31.8822 215.429 32.4334V30.627H216V37.5346H215.429V35.7155C215.227 36.2752 214.867 36.7374 214.352 37.1021C213.845 37.4583 213.232 37.6364 212.514 37.6364C211.871 37.6364 211.296 37.4922 210.789 37.2038C210.291 36.907 209.898 36.4915 209.61 35.9572C209.331 35.4144 209.192 34.7868 209.192 34.0745ZM215.429 34.0745C215.429 33.4723 215.303 32.9423 215.049 32.4843C214.804 32.0179 214.466 31.6617 214.035 31.4158C213.604 31.1613 213.122 31.0341 212.59 31.0341C212.032 31.0341 211.542 31.1571 211.119 31.403C210.696 31.6405 210.367 31.9882 210.13 32.4462C209.893 32.9041 209.775 33.4469 209.775 34.0745C209.775 34.702 209.893 35.2448 210.13 35.7028C210.367 36.1607 210.696 36.5127 211.119 36.7586C211.55 37.0045 212.04 37.1275 212.59 37.1275C213.122 37.1275 213.604 37.0045 214.035 36.7586C214.474 36.5042 214.817 36.148 215.062 35.69C215.307 35.2236 215.429 34.6851 215.429 34.0745Z" fill="#3A416E"/>
<path d="M209.192 34.0745C209.192 33.3621 209.331 32.7387 209.61 32.2045C209.898 31.6702 210.291 31.2589 210.789 30.9705C211.296 30.6822 211.871 30.538 212.514 30.538C213.24 30.538 213.857 30.7161 214.365 31.0723C214.872 31.4285 215.227 31.8822 215.429 32.4334V30.627H216V37.5346H215.429V35.7155C215.227 36.2752 214.867 36.7374 214.352 37.1021C213.845 37.4583 213.232 37.6364 212.514 37.6364C211.871 37.6364 211.296 37.4922 210.789 37.2038C210.291 36.907 209.898 36.4915 209.61 35.9572C209.331 35.4144 209.192 34.7868 209.192 34.0745ZM215.429 34.0745C215.429 33.4723 215.303 32.9423 215.049 32.4843C214.804 32.0179 214.466 31.6617 214.035 31.4158C213.604 31.1613 213.122 31.0341 212.59 31.0341C212.032 31.0341 211.542 31.1571 211.119 31.403C210.696 31.6405 210.367 31.9882 210.13 32.4462C209.893 32.9041 209.775 33.4469 209.775 34.0745C209.775 34.702 209.893 35.2448 210.13 35.7028C210.367 36.1607 210.696 36.5127 211.119 36.7586C211.55 37.0045 212.04 37.1275 212.59 37.1275C213.122 37.1275 213.604 37.0045 214.035 36.7586C214.474 36.5042 214.817 36.148 215.062 35.69C215.307 35.2236 215.429 34.6851 215.429 34.0745Z" fill="#3A416E"/>
<path d="M9.3843 36.1904V5.61229C9.3843 5.40565 9.21736 5.23814 9.01142 5.23814H6.47748C6.25574 5.23814 6.083 5.43113 6.10674 5.65235L9.3843 36.1904Z" fill="#3A416E"/>
<path d="M9.3843 36.1904V5.61229C9.3843 5.40565 9.21736 5.23814 9.01142 5.23814H6.47748C6.25574 5.23814 6.083 5.43113 6.10674 5.65235L9.3843 36.1904Z" fill="#3A416E"/>
<path d="M9.3843 36.1904V5.61229C9.3843 5.40565 9.21736 5.23814 9.01142 5.23814H6.47748C6.25574 5.23814 6.083 5.43113 6.10674 5.65235L9.3843 36.1904Z" fill="#3A416E"/>
<path d="M8.76667 39.9185L3.6726 10.4601C3.63739 10.2565 3.44436 10.1201 3.24146 10.1554L0.309284 10.6659C0.0882989 10.7044 -0.0490737 10.9285 0.0163836 11.1437L8.76667 39.9185Z" fill="#3A416E"/>
<path d="M8.76667 39.9185L3.6726 10.4601C3.63739 10.2565 3.44436 10.1201 3.24146 10.1554L0.309284 10.6659C0.0882989 10.7044 -0.0490737 10.9285 0.0163836 11.1437L8.76667 39.9185Z" fill="#3A416E"/>
<path d="M8.76667 39.9185L3.6726 10.4601C3.63739 10.2565 3.44436 10.1201 3.24146 10.1554L0.309284 10.6659C0.0882989 10.7044 -0.0490737 10.9285 0.0163836 11.1437L8.76667 39.9185Z" fill="#3A416E"/>
<path d="M11.2829 0.374185C11.2829 0.167548 11.4499 3.55902e-05 11.6558 3.55902e-05H41.2828C41.4887 3.55902e-05 41.6557 0.167548 41.6557 0.374185V3.4354C41.6557 3.64204 41.4887 3.80955 41.2828 3.80955H11.6558C11.4499 3.80955 11.2829 3.64204 11.2829 3.4354V0.374185Z" fill="#3A416E"/>
<path d="M11.2829 0.374185C11.2829 0.167548 11.4499 3.55902e-05 11.6558 3.55902e-05H41.2828C41.4887 3.55902e-05 41.6557 0.167548 41.6557 0.374185V3.4354C41.6557 3.64204 41.4887 3.80955 41.2828 3.80955H11.6558C11.4499 3.80955 11.2829 3.64204 11.2829 3.4354V0.374185Z" fill="#3A416E"/>
<path d="M11.2829 0.374185C11.2829 0.167548 11.4499 3.55902e-05 11.6558 3.55902e-05H41.2828C41.4887 3.55902e-05 41.6557 0.167548 41.6557 0.374185V3.4354C41.6557 3.64204 41.4887 3.80955 41.2828 3.80955H11.6558C11.4499 3.80955 11.2829 3.64204 11.2829 3.4354V0.374185Z" fill="#3A416E"/>
<path d="M39.6558 9.99997C39.4498 9.99997 39.2829 9.83246 39.2829 9.62582V0.374149C39.2829 0.167512 39.4498 9.03239e-09 39.6558 0L41.2828 3.55902e-05C41.4887 3.55902e-05 41.6557 0.167548 41.6557 0.374185L41.6558 9.62582C41.6558 9.83246 41.4888 9.99997 41.2829 9.99997H39.6558Z" fill="#3A416E"/>
<path d="M39.6558 9.99997C39.4498 9.99997 39.2829 9.83246 39.2829 9.62582V0.374149C39.2829 0.167512 39.4498 9.03239e-09 39.6558 0L41.2828 3.55902e-05C41.4887 3.55902e-05 41.6557 0.167548 41.6557 0.374185L41.6558 9.62582C41.6558 9.83246 41.4888 9.99997 41.2829 9.99997H39.6558Z" fill="#3A416E"/>
<path d="M39.6558 9.99997C39.4498 9.99997 39.2829 9.83246 39.2829 9.62582V0.374149C39.2829 0.167512 39.4498 9.03239e-09 39.6558 0L41.2828 3.55902e-05C41.4887 3.55902e-05 41.6557 0.167548 41.6557 0.374185L41.6558 9.62582C41.6558 9.83246 41.4888 9.99997 41.2829 9.99997H39.6558Z" fill="#3A416E"/>
<path d="M16.503 7.51705C16.503 7.31041 16.6699 7.1429 16.8758 7.1429H29.8927C30.0986 7.1429 30.2656 7.31041 30.2656 7.51705V9.62588C30.2656 9.83252 30.0986 10 29.8927 10H16.8758C16.6699 10 16.503 9.83252 16.503 9.62588V7.51705Z" fill="#3A416E"/>
<path d="M16.503 7.51705C16.503 7.31041 16.6699 7.1429 16.8758 7.1429H29.8927C30.0986 7.1429 30.2656 7.31041 30.2656 7.51705V9.62588C30.2656 9.83252 30.0986 10 29.8927 10H16.8758C16.6699 10 16.503 9.83252 16.503 9.62588V7.51705Z" fill="#3A416E"/>
<path d="M16.503 7.51705C16.503 7.31041 16.6699 7.1429 16.8758 7.1429H29.8927C30.0986 7.1429 30.2656 7.31041 30.2656 7.51705V9.62588C30.2656 9.83252 30.0986 10 29.8927 10H16.8758C16.6699 10 16.503 9.83252 16.503 9.62588V7.51705Z" fill="#3A416E"/>
<path d="M22.1982 14.1836C22.1982 13.977 22.3651 13.8095 22.5711 13.8095H37.0117C37.2176 13.8095 37.3845 13.977 37.3845 14.1836V16.7687C37.3845 16.9753 37.2176 17.1428 37.0117 17.1428H22.5711C22.3651 17.1428 22.1982 16.9753 22.1982 16.7687V14.1836Z" fill="#3A416E"/>
<path d="M22.1982 14.1836C22.1982 13.977 22.3651 13.8095 22.5711 13.8095H37.0117C37.2176 13.8095 37.3845 13.977 37.3845 14.1836V16.7687C37.3845 16.9753 37.2176 17.1428 37.0117 17.1428H22.5711C22.3651 17.1428 22.1982 16.9753 22.1982 16.7687V14.1836Z" fill="#3A416E"/>
<path d="M22.1982 14.1836C22.1982 13.977 22.3651 13.8095 22.5711 13.8095H37.0117C37.2176 13.8095 37.3845 13.977 37.3845 14.1836V16.7687C37.3845 16.9753 37.2176 17.1428 37.0117 17.1428H22.5711C22.3651 17.1428 22.1982 16.9753 22.1982 16.7687V14.1836Z" fill="#3A416E"/>
<path d="M22.1982 20.8504C22.1982 20.6438 22.3651 20.4762 22.5711 20.4762H41.2828C41.4887 20.4762 41.6557 20.6438 41.6557 20.8504V23.4354C41.6557 23.6421 41.4887 23.8096 41.2828 23.8096H22.5711C22.3651 23.8096 22.1982 23.6421 22.1982 23.4354V20.8504Z" fill="#3A416E"/>
<path d="M22.1982 20.8504C22.1982 20.6438 22.3651 20.4762 22.5711 20.4762H41.2828C41.4887 20.4762 41.6557 20.6438 41.6557 20.8504V23.4354C41.6557 23.6421 41.4887 23.8096 41.2828 23.8096H22.5711C22.3651 23.8096 22.1982 23.6421 22.1982 23.4354V20.8504Z" fill="#3A416E"/>
<path d="M22.1982 20.8504C22.1982 20.6438 22.3651 20.4762 22.5711 20.4762H41.2828C41.4887 20.4762 41.6557 20.6438 41.6557 20.8504V23.4354C41.6557 23.6421 41.4887 23.8096 41.2828 23.8096H22.5711C22.3651 23.8096 22.1982 23.6421 22.1982 23.4354V20.8504Z" fill="#3A416E"/>
<path d="M22.1982 27.9931C22.1982 27.7865 22.3651 27.619 22.5711 27.619H38.9099C39.1159 27.619 39.2828 27.7865 39.2828 27.9931V30.5781C39.2828 30.7848 39.1159 30.9523 38.9099 30.9523H22.5711C22.3651 30.9523 22.1982 30.7848 22.1982 30.5781V27.9931Z" fill="#3A416E"/>
<path d="M22.1982 27.9931C22.1982 27.7865 22.3651 27.619 22.5711 27.619H38.9099C39.1159 27.619 39.2828 27.7865 39.2828 27.9931V30.5781C39.2828 30.7848 39.1159 30.9523 38.9099 30.9523H22.5711C22.3651 30.9523 22.1982 30.7848 22.1982 30.5781V27.9931Z" fill="#3A416E"/>
<path d="M22.1982 27.9931C22.1982 27.7865 22.3651 27.619 22.5711 27.619H38.9099C39.1159 27.619 39.2828 27.7865 39.2828 27.9931V30.5781C39.2828 30.7848 39.1159 30.9523 38.9099 30.9523H22.5711C22.3651 30.9523 22.1982 30.7848 22.1982 30.5781V27.9931Z" fill="#3A416E"/>
<path d="M16.503 14.1836C16.503 13.977 16.6699 13.8095 16.8758 13.8095H19.4521C19.658 13.8095 19.825 13.977 19.825 14.1836V16.7687C19.825 16.9753 19.658 17.1428 19.4521 17.1428H16.8758C16.6699 17.1428 16.503 16.9753 16.503 16.7687V14.1836Z" fill="#3A416E"/>
<path d="M16.503 14.1836C16.503 13.977 16.6699 13.8095 16.8758 13.8095H19.4521C19.658 13.8095 19.825 13.977 19.825 14.1836V16.7687C19.825 16.9753 19.658 17.1428 19.4521 17.1428H16.8758C16.6699 17.1428 16.503 16.9753 16.503 16.7687V14.1836Z" fill="#3A416E"/>
<path d="M16.503 14.1836C16.503 13.977 16.6699 13.8095 16.8758 13.8095H19.4521C19.658 13.8095 19.825 13.977 19.825 14.1836V16.7687C19.825 16.9753 19.658 17.1428 19.4521 17.1428H16.8758C16.6699 17.1428 16.503 16.9753 16.503 16.7687V14.1836Z" fill="#3A416E"/>
<path d="M16.503 20.8504C16.503 20.6438 16.6699 20.4762 16.8758 20.4762H19.4521C19.658 20.4762 19.825 20.6438 19.825 20.8504V23.4354C19.825 23.6421 19.658 23.8096 19.4521 23.8096H16.8758C16.6699 23.8096 16.503 23.6421 16.503 23.4354V20.8504Z" fill="#3A416E"/>
<path d="M16.503 20.8504C16.503 20.6438 16.6699 20.4762 16.8758 20.4762H19.4521C19.658 20.4762 19.825 20.6438 19.825 20.8504V23.4354C19.825 23.6421 19.658 23.8096 19.4521 23.8096H16.8758C16.6699 23.8096 16.503 23.6421 16.503 23.4354V20.8504Z" fill="#3A416E"/>
<path d="M16.503 20.8504C16.503 20.6438 16.6699 20.4762 16.8758 20.4762H19.4521C19.658 20.4762 19.825 20.6438 19.825 20.8504V23.4354C19.825 23.6421 19.658 23.8096 19.4521 23.8096H16.8758C16.6699 23.8096 16.503 23.6421 16.503 23.4354V20.8504Z" fill="#3A416E"/>
<path d="M16.503 27.9931C16.503 27.7865 16.6699 27.619 16.8758 27.619H19.4521C19.658 27.619 19.825 27.7865 19.825 27.9931V30.5781C19.825 30.7848 19.658 30.9523 19.4521 30.9523H16.8758C16.6699 30.9523 16.503 30.7848 16.503 30.5781V27.9931Z" fill="#3A416E"/>
<path d="M16.503 27.9931C16.503 27.7865 16.6699 27.619 16.8758 27.619H19.4521C19.658 27.619 19.825 27.7865 19.825 27.9931V30.5781C19.825 30.7848 19.658 30.9523 19.4521 30.9523H16.8758C16.6699 30.9523 16.503 30.7848 16.503 30.5781V27.9931Z" fill="#3A416E"/>
<path d="M16.503 27.9931C16.503 27.7865 16.6699 27.619 16.8758 27.619H19.4521C19.658 27.619 19.825 27.7865 19.825 27.9931V30.5781C19.825 30.7848 19.658 30.9523 19.4521 30.9523H16.8758C16.6699 30.9523 16.503 30.7848 16.503 30.5781V27.9931Z" fill="#3A416E"/>
<path d="M11.2829 35.6122C11.2829 35.4056 11.4499 35.2381 11.6558 35.2381H41.2828C41.4887 35.2381 41.6557 35.4056 41.6557 35.6122V39.6258C41.6557 39.8325 41.4887 40 41.2828 40H11.6558C11.4499 40 11.2829 39.8325 11.2829 39.6258V35.6122Z" fill="#3A416E"/>
<path d="M11.2829 35.6122C11.2829 35.4056 11.4499 35.2381 11.6558 35.2381H41.2828C41.4887 35.2381 41.6557 35.4056 41.6557 35.6122V39.6258C41.6557 39.8325 41.4887 40 41.2828 40H11.6558C11.4499 40 11.2829 39.8325 11.2829 39.6258V35.6122Z" fill="#3A416E"/>
<path d="M11.2829 35.6122C11.2829 35.4056 11.4499 35.2381 11.6558 35.2381H41.2828C41.4887 35.2381 41.6557 35.4056 41.6557 35.6122V39.6258C41.6557 39.8325 41.4887 40 41.2828 40H11.6558C11.4499 40 11.2829 39.8325 11.2829 39.6258V35.6122Z" fill="#3A416E"/>
<path d="M11.6558 40C11.4499 40 11.2829 39.8325 11.2829 39.6258V0.374185C11.2829 0.167548 11.4499 3.55902e-05 11.6558 3.55902e-05L13.2829 0.000125528C13.4889 0.000125519 13.6558 0.167638 13.6558 0.374275L13.6558 39.6259C13.6558 39.8325 13.4889 40 13.2829 40L11.6558 40Z" fill="#3A416E"/>
<path d="M11.6558 40C11.4499 40 11.2829 39.8325 11.2829 39.6258V0.374185C11.2829 0.167548 11.4499 3.55902e-05 11.6558 3.55902e-05L13.2829 0.000125528C13.4889 0.000125519 13.6558 0.167638 13.6558 0.374275L13.6558 39.6259C13.6558 39.8325 13.4889 40 13.2829 40L11.6558 40Z" fill="#3A416E"/>
<path d="M11.6558 40C11.4499 40 11.2829 39.8325 11.2829 39.6258V0.374185C11.2829 0.167548 11.4499 3.55902e-05 11.6558 3.55902e-05L13.2829 0.000125528C13.4889 0.000125519 13.6558 0.167638 13.6558 0.374275L13.6558 39.6259C13.6558 39.8325 13.4889 40 13.2829 40L11.6558 40Z" fill="#3A416E"/>
</svg>
